<?xml version="1.0" encoding="utf-8"?>
<!-- Generator: Adobe Illustrator 27.5.0, SVG Export Plug-In . SVG Version: 6.00 Build 0)  -->
<svg version="1.1" id="Layer_1" xmlns="http://www.w3.org/2000/svg" xmlns:xlink="http://www.w3.org/1999/xlink" x="0px" y="0px"
	 viewBox="0 0 288 287.998" style="enable-background:new 0 0 288 287.998;" xml:space="preserve">
<g>
	<rect style="fill-rule:evenodd;clip-rule:evenodd;fill:#F8F8F8;" width="288" height="287.998"/>
	<g>
		<g>
			<path style="fill:#303445;" d="M91.709,199.239c-0.886,0,0.108-1.642-5.96-5.282c-4.182-2.509-3.035-0.93-3.035-2.787
				c0-2.249-1.539-3.325-3.618-4.235c-0.19-3.992,0.274-2.447,0.274-3.248c0-0.644-0.391,0.094-0.453-1.596
				c3.025-0.138,3.104-4.609,0.077-4.846c0-19.664-0.009-22.757-0.023-35.935h-0.275c-0.015,13.194-0.023,16.29-0.023,35.929
				c-1.28,0.071-2.302,1.124-2.302,2.422c0,2.329,2.34,2.302,2.33,2.581c-0.035,0.928-0.034,0.896-0.034,0.904
				c-0.534,0.142-0.562,0.886-0.041,1.068c-0.001,0.022,0.001-0.021-0.101,2.719c-0.026,0.336-4.662,1.223-3.46,5.331
				c-2.796,1.337-7.64,4.115-8.79,6.975c-2.574,0-2.308,3.035-0.251,3.035c0,13.053-0.005,16.345-0.007,16.998
				c0.001-0.138,0.003-0.274,0.007,0.135c0.078,3.837,8.986,9.322,12.199,10.43c-0.094,0.319,0.056,0.619,0.311,0.761
				c-0.251,1.106-0.085,3.094,0.319,3.094c0.469,0,0.534-2.148,0.319-3.094c0.248-0.138,0.395-0.423,0.321-0.73
				c2.936-0.959,12.12-6.48,12.202-10.466c0-17.404-0.077-17.128,0.014-17.128C93.825,202.274,93.827,199.239,91.709,199.239z
				 M85.459,194.441c2.826,1.695,4.67,3.356,5.362,4.798c-1.984,0-0.578-1.916-8.826-5.818
				C82.454,192.771,81.9,192.306,85.459,194.441z M88.971,220.337c-1.243,1.939-1.165,1.178-1.392,0.791
				c-0.127-0.216-1.087,0.05-1.391,0.206c-1.606,0.826-0.674,2.408-1.233,2.811c-0.328-0.825-0.298-1.394-0.298-1.941
				c-4.348-2.767,0.047-3.022-0.001-4.058c-0.127-2.878,1.268-3.049,3.343-1.735c0.43-0.268,0.781-0.475,1.38-0.631
				c0,0.721,0.108,0.117-0.749,0.909c-0.922,0.852-0.917,3.146,0.749,2.666C89.38,219.818,88.852,220.134,88.971,220.337z
				 M85.407,223.813c-0.034-0.185-0.049-0.372-0.043-0.562C85.448,220.713,90.108,220.285,85.407,223.813z M83.749,224.59
				c-0.091-0.029-1.213-0.785,0.36-0.477C84.706,222.31,85.227,225.07,83.749,224.59z M83.937,224.853
				c-0.048-0.063-0.094-0.123-0.143-0.187C84.212,224.741,84.083,224.755,83.937,224.853z M80.649,226.575
				c0.077,0.051,0.134,0.085,0.171,0.108c-0.17-0.086-0.714-0.324-1.421-0.331c-0.36-0.004-0.518,1.271-0.609,1.236
				c-0.094-1.283-0.713-1.586-1.884-0.896c-0.073-0.038,1.157-0.863,0.937-1.24c-0.918-1.581-2.517-1.552-3.692-0.389
				c-0.649-0.423,1.346-1.284,1.331-1.624c-0.116-2.527,1.066-3.205,3.191-1.831c0.476,0.307,3.751-2.721,3.491,1.843
				c-0.02,0.344,2.052,1.224,1.385,1.661C81.613,223.108,78.467,225.145,80.649,226.575z M83.355,225.237
				c-0.172,0.111-2.15,1.362-2.276,1.309C78.745,225.561,81.391,223.295,83.355,225.237z M80.572,226.86
				c-1.688,0.874-1.488,0.701-1.46,0.542C79.25,226.632,79.492,226.273,80.572,226.86z M78.552,227.491
				c-0.103-0.044-1.463-0.645-1.363-0.692C78.128,226.361,78.419,226.537,78.552,227.491z M76.598,226.527
				c-2.004-1.09-3.109-1.601-0.881-2.056C76.796,224.253,78.665,225.685,76.598,226.527z M72.462,222.732
				c-0.236-1.379-2.168-2.381-2.638-1.088c-0.509-0.526-1.456-1.674-1.486-2.268c1.552,0.397,1.588-1.784,0.744-2.626
				c-0.827-0.826-0.745-0.186-0.745-0.954c0.563,0.156,0.913,0.364,1.312,0.615c2.034-1.275,3.488-1.198,3.343,1.753
				c-0.026,0.515,4.218,1.863,0.155,3.932c-0.363,0.185,0.084,0.643-0.429,1.986C72.194,223.704,72.68,224.002,72.462,222.732z
				 M72.253,223.74c-2.637-1.978-2.272-1.954-2.061-2.356C70.362,221.062,72.628,221.404,72.253,223.74z M70.188,198.182
				c0.438-0.373,0.318-0.321,0.365-0.042c0.112,0.659,0.518,0.511-0.594,0.511C70.26,198.475,70.178,198.599,70.188,198.182z
				 M74.708,195.225c0.236,0.625-0.158,0.653,0.646,0.369c-0.254,0.731-0.778,0.188,0.011,1.221
				c-0.865-0.155-0.348-0.447-0.653,0.378c-0.356-0.852-0.152-0.746-1.049-0.603c0.054-0.095,0.137-0.152,0.419-0.38
				c-0.519-0.437-0.441-0.379-0.268-0.357C74.538,195.946,74.366,196.08,74.708,195.225z M74.215,195.594
				c0.642-0.76,0.184,0.16,0.004,0.161C73.468,195.759,73.942,195.586,74.215,195.594z M83.868,195.846
				c-0.052,0.06-0.092,0.115-0.124,0.167c0.283-0.27,0.24-0.234,0.561-0.046c-0.045,0.064-0.108,0.141-0.196,0.243
				c0.608,0.663,0.163,0.62-0.458,0.096c0.012,0.406,0.745,0.341-0.522,0.18c-0.391,0.93-0.276,0.868-0.409,0.151
				c-1.302,0.465,0.319,0.096-0.529-1.018c0.091-0.008,0.144,0.018,0.524,0.165c0.139-0.579,0.077-0.66,0.166-0.448
				C83.289,196.318,82.975,195.754,83.868,195.846z M83.27,195.49c0.038,0.091,1.213,0.263,0.07,0.265
				C82.962,195.756,82.98,194.805,83.27,195.49z M87.579,198.65c-1.062,0-0.747,0.108-0.624-0.355
				c0.151-0.572-0.089-0.644,0.394-0.247C87.388,198.623,87.245,198.454,87.579,198.65z M84.446,206.705
				c0.102,0.085,0.05,0.096,0.038,0.856c-0.006,0.37-1.569,0.792-1.751,0.328c-0.199-0.51-0.426-0.489-0.416-0.692
				c0.04-0.763-0.01-0.762,0.101-0.829c0.545-0.329,0.903-0.458,1.151-0.47c-0.665,0.02-0.145-0.449,0.959-0.799
				c0.356,1.31-0.004,2.109-0.415,0.724c-0.221,0.046-0.39,0.068-0.521,0.073C84.13,205.885,84.136,206.447,84.446,206.705z
				 M83.031,210.559c-1.262-0.227-0.508-0.653-0.952,0.551c-0.52-1.244-0.221-1.088-1.53-0.879c0.067-0.118,0.129-0.164,0.611-0.554
				c-0.16-0.135-0.274-0.232-0.363-0.309c0.22,0.308,0.122,0.738-1.035,1.061c0.067-0.317,0.25-0.533,0.458-0.749
				c-0.724-0.814-0.064-0.816,0.367-0.515c-0.032-0.053,0.058-0.024,0.183-0.008c1.057,0.135,0.805,0.329,1.304-0.917
				c0.343,0.908-0.229,0.952,0.942,0.539C82.641,209.855,81.854,209.015,83.031,210.559z M84.01,213.366
				c-0.292-0.042-0.551-0.092-0.837,0.014c-0.123,0.046-0.114-0.015-0.746-0.39c-0.132-0.079-0.062-0.095-0.109-0.808
				c-0.011-0.164,0.031-0.31,0.111-0.435c-0.04,0.044-0.084,0.09-0.142,0.14c-0.11-0.453-0.217-0.602-0.099-0.99
				c0.188-0.622-0.152-0.597,0.891-0.26c0.091,0.03,0.956,0.619,0.074,0.547c-0.788-0.063-0.344,0.069-0.662,0.49
				C83.133,210.887,85.329,211.111,84.01,213.366z M85.785,214.953c0.989-0.894,1.694-1.091,0.824,0.021
				c0.896,0.975,0.244,0.924-0.696,0.122c0.086,0.094,0.206,0.227,0.372,0.421c-1.295-0.165-1.059-0.272-1.328,0.372
				c-0.309,0.737-0.152,0.741-0.379-0.297c-0.481,0.185-0.272,0.111-0.764,0.271c0.365-1.072,1.171-0.218-0.023-1.788
				c1.262,0.261,0.534,0.624,0.955-0.545c0.521,1.247,0.22,1.083,1.528,0.879C85.952,214.995,85.626,214.763,85.785,214.953z
				 M89.38,214.947c-0.193-0.205-0.38-0.419-0.44-0.73C89.495,214.361,89.38,214.205,89.38,214.947z M88.968,215.713
				c-0.011-0.178,0.009-0.216,0.412-0.733C89.38,215.733,89.487,215.58,88.968,215.713z M89.11,215.094
				c-0.224,0.27-0.372,0.72-0.409,0.738c-0.69,0.347-0.663,0.394-0.785,0.326c-0.578-0.324-1.267-0.403-0.715-1.929
				c0.196-0.541,1.527-0.482,1.647,0.16C88.923,214.792,89.31,214.854,89.11,215.094z M82.714,221.693
				c-0.69,2.244-1.172-2.294,0.85,0.031C83.288,221.823,83.007,221.762,82.714,221.693z M83.716,221.823
				c0.942,0.573,1.157,0.504,0.294,2.136c-0.729-0.159-1.661,0.352-1.692-1.235c0-0.013,0.338-0.435,0.46-0.803
				C82.787,221.896,83.427,221.953,83.716,221.823z M82.25,220.882c-0.241,0.963,0.008,1.234-0.604-0.217
				c-1.456,0.185-1.291,0.281-0.491-0.399c-0.723-0.686-1.05-0.605,0.475-0.41c0.58-1.046,0.353-1.587,0.612-0.219
				c0.049-0.018,0.746-0.283,0.775-0.24c-0.828,1.085-0.794,0.685,0.018,1.753C82.746,221.089,82.509,220.976,82.25,220.882z
				 M74.926,221.696c-1.336,0.304-0.866-0.315,0.421-0.722C75.561,221.384,75.7,223.552,74.926,221.696z M75.222,223.576
				c-0.529,0.317-0.639,0.424-0.71,0.398c-0.414-0.156-0.797-0.007-0.881-0.027c-0.109-0.274-0.195-0.523-0.434-0.721
				c-0.091-0.075-0.048-0.105-0.031-0.86c0.002-0.103-0.008-0.076,0.689-0.507c0.187-0.115,0.134,0.166,0.979-0.005
				C74.876,221.946,75.702,223.288,75.222,223.576z M75.406,220.887c-1.087,0.385-0.915,0.463-0.128-0.617
				c-0.602-0.99-1.124-1.075,0.123-0.629c0.161-0.874,0.127-0.787,0.18-0.787c0.506,1.206,0.141,1.039,1.507,0.865
				c-0.069,0.132-0.182,0.207-0.593,0.539c0.047,0.04,0.602,0.485,0.579,0.543c-1.349-0.171-0.986-0.34-1.503,0.891
				C75.471,221.419,75.461,221.153,75.406,220.887z M68.709,215.719c-0.467-0.12-0.371,0.021-0.371-0.656
				C68.505,215.251,68.658,215.447,68.709,215.719z M68.338,214.315c0.118-0.031,0.239-0.064,0.378-0.101
				C68.695,214.304,68.338,215.369,68.338,214.315z M68.459,215c-0.084-0.091,0.685-0.997,0.468-0.881
				c1.448-0.78,1.385,0.243,1.938,0.845c-0.169,0.211-0.363,0.42-0.416,0.734c-0.025,0.148-0.072,0.097-0.705,0.454
				C69.267,216.42,68.543,215.094,68.459,215z M71.025,214.99c-0.494-0.753-0.372-0.543-0.446-0.781
				C73.441,215.026,69.601,216.596,71.025,214.99z M71.664,215.234c0.503-0.442,0.418-0.068-0.313-0.817
				c1.346,0.172,1.011,0.409,1.55-0.881c0.343,0.892-0.239,0.946,0.921,0.536c0.027,0.044-0.612,0.855-0.643,0.896
				c0.861,1.135,0.955,1.004-0.107,0.625c-0.229,0.986-0.001,1.219-0.592-0.198C71.461,215.401,71.043,215.78,71.664,215.234z
				 M68.715,205.136c-0.475-0.124-0.377,0.017-0.377-0.658c0.071,0.078,0.137,0.161,0.196,0.248
				c-0.184-0.418,0.255-0.712,0.316-1.071c0.025-0.145,0.08-0.104,0.704-0.455c0.494-0.281,1.196,1.049,1.285,1.148
				c0.081,0.091-0.105-0.013-0.388,0.763c-0.053,0.146,0.038,0.064-0.799,0.492c-0.582-0.295-0.891-0.536-1.042-0.747
				C68.653,204.942,68.692,205.033,68.715,205.136z M68.338,203.728c0.118-0.03,0.239-0.062,0.372-0.096
				C68.692,203.722,68.338,204.786,68.338,203.728z M71.046,204.383c-0.938-1.037-0.176-0.923,0.843,0.006
				C70.628,205.457,70.183,205.343,71.046,204.383z M71.987,204.385c-0.77-0.689-0.999-0.597,0.485-0.412
				c0.566-1.349,0.396-1.253,0.595-0.216c0.994-0.333,1.025-0.572,0.122,0.612c0.595,0.97,1.134,1.107-0.119,0.636
				c-0.208,1.035-0.012,1.18-0.599-0.214C71.024,204.977,71.158,205.081,71.987,204.385z M76.492,194.326
				c0.438-0.199,0.276-0.223,0.359,0.216c0.331,1.755,1.899,1.156,1.937,0.167c0.003,0.093,0.012,0.192,0.034,0.303
				c0.253,1.28,1.907,0.495,1.91-0.872c0.355,0.156,0.314,0.121,0.322,0.219c0.107,1.174,0.563,0.318,1.376,1.851
				c-0.709,1.338-1.327,0.869-1.37,1.753c-0.04,0.827-0.173,0.688-0.363,0.688c0.289-1.651-1.687-2.707-1.894-1.136
				c-0.062,0.473,0.078,0.838,0.394,1.136c-1.445,0-0.626,0.168-0.47-0.665c0.37-1.966-1.595-1.214-1.852-0.227
				c-0.237,0.915,0.218,0.892-0.27,0.892c-0.15-0.487-0.126-0.808-0.126-1.125c-1.39-0.671-1.946-1.692,0-2.63
				C76.48,194.684,76.467,194.567,76.492,194.326z M78.788,194.65c-0.007-0.328-0.18-0.693-0.623-1.027
				c0.465-0.173,0.419-0.169,0.51-0.11c0.113,0.073,0.161,0.018,0.293-0.06C79.876,193.733,78.794,193.615,78.788,194.65z
				 M79.403,193.791c0.19-0.154,0.084-0.191,1.175,0.282c0.025,0.927-0.549,1.461-1.401,1.427
				C78.83,194.881,78.841,194.247,79.403,193.791z M78.576,194.941c-0.2,1.127-1.383,0.313-1.545-0.3
				C76.732,193.511,78.863,193.329,78.576,194.941z M84.167,202.429c-0.037,0.073-0.071,0.149-0.1,0.227
				C83.957,202.957,80.752,202.429,84.167,202.429z M83.327,198.285c-0.628-2.252,1.846-1.045,1.516,0.366
				C83.481,198.65,83.463,198.771,83.327,198.285z M82.366,206.203c-0.528,0.28,0.51,4.589-3.538,2.036
				c-2.032,1.241-3.485,1.234-3.346-1.75c0.013-0.277-2.31-1.587-1.917-2.255c0.53-0.908,1.426-1.805,2.606-1.805
				c0.434,0.971,2.381,2.048,2.613,0c0.271,0-0.083,1.895,1.872,0.867c1.193-0.628,0.193-0.867,1.532-0.867
				C82.316,202.681,86.144,204.191,82.366,206.203z M75.294,216.794c-2.513-1.332-1.995-2.594,0.185-3.749
				c0-4.324,2.18-2.345,3.353-1.937c4.182-2.596,2.822,1.663,3.521,2.034c2.579,1.365,1.932,2.599-0.191,3.757
				c0,2.572-0.713,3.558-3.14,2.048c-0.338-0.209-2.563,1.192-2.957,0.504C75.067,217.699,75.824,217.075,75.294,216.794z
				 M76.594,209.678c0.953-0.869,1.709-1.125,0.843,0.005C78.386,210.69,77.621,210.592,76.594,209.678z M78.825,210.891
				c-0.636-0.324-0.773-0.368-0.787-0.448c-0.141-0.815-0.573-0.377-0.189-1.077c0.189-0.345,0.145-0.485,0.284-0.555
				c0.671-0.335,0.647-0.393,0.785-0.315c0.485,0.272,0.675,0.325,0.693,0.421c0.058,0.295,0.22,0.529,0.423,0.752
				c-0.174,0.224-0.355,0.417-0.414,0.743C79.6,210.527,79.622,210.485,78.825,210.891z M73.041,202.429
				c0.3,0,0.307-0.102,0.495,0.509C75.668,202.598,72.414,204.792,73.041,202.429z M78.273,203.272
				c-0.12,0.227-1.431-0.028-1.855-0.843C78.62,202.429,78.858,202.162,78.273,203.272z M78.388,196.959
				c0.351,0.66,0.229,1.201-0.1,1.533c-0.209,0.211-0.073,0.159-1.294,0.159C76.707,197.113,78.267,196.729,78.388,196.959z
				 M76.396,198.319c0.033,0.126,0.085,0.306,0.09,0.331C76.345,198.65,75.931,198.734,76.396,198.319z M81.229,202.429
				c-0.345,0.664-1.919,1.647-2.134,0H81.229z M79.183,196.914c0.798,0.015,1.212,0.406,1.332,0.874
				c0.276,1.074-0.029,0.863-1.076,0.863C78.832,198.169,78.829,197.494,79.183,196.914z M81.06,198.65
				c0.028-0.105,0.057-0.212,0.089-0.33C81.593,198.717,81.204,198.65,81.06,198.65z M82.316,198.65
				c-0.964,0-1.179,0.081-1.123-1.046c0.655-0.426,1.136-0.315,1.182-0.189C82.479,197.693,83.068,198.168,82.316,198.65z
				 M82.397,197.196c-1.416,0.261,0.42-1.081,0.402,0.077C82.79,197.893,82.579,197.786,82.397,197.196z M75.74,197.206
				c-0.159,0.081-0.387,0.024-0.593-0.007C74.688,198.61,74.361,195.761,75.74,197.206z M74.931,197.787
				c0.154-0.129,0.213-0.308,0.28-0.483c0.197,0.03,0.371,0.062,0.575-0.003c0.38-0.122,0.766,0.757,0.566,0.928
				c-0.135,0.114-0.215,0.261-0.273,0.422c-1.027,0-1.185-0.127-1.186-0.27C74.888,197.883,74.842,197.861,74.931,197.787z
				 M74.542,202.817c-0.635-0.274-0.826,0.181-0.984-0.225c-0.09-0.233-0.352-0.163,1.623-0.163
				C74.974,202.552,74.769,202.678,74.542,202.817z M72.675,198.102c0.106-0.594,1.666-1.963,1.614-0.318
				c-0.009,0.297-0.071,0.631-0.254,0.867C72.641,198.65,72.549,198.81,72.675,198.102z M72.981,205.738
				c0.21-0.79-0.082-0.712,0.923-0.391c0.091,0.028,1.189,0.802-0.364,0.476C73.062,207.288,72.921,205.965,72.981,205.738z
				 M73.188,206.719c0.269-0.219,0.339-0.489,0.445-0.734c0.319,0.042,0.546,0.094,0.841-0.012c0.115-0.042,0.068-0.039,0.829,0.454
				c0,1.278,0.162,0.45-0.386,1.468c-0.118,0.218,0.032,0.202-0.303,0.15c-0.561-0.087-0.596,0.143-0.789,0.014
				c-0.607-0.404-0.658-0.36-0.658-0.51C73.165,207.057,73.112,206.781,73.188,206.719z M74.933,208.238
				c0.448-1.347,0.715-0.636,0.44,0.674C75.32,209.167,72.898,207.854,74.933,208.238z M75.027,208.913
				c0.679,0.215,0.182,0.298,0.545-0.666c0.532,1.27,0.214,1.053,1.504,0.882c0.028,0.063,0.085-0.016-0.577,0.546
				c1.49,1.273-0.233-0.237-0.716,0.915c-0.305,0.73-0.16,0.749-0.378-0.289c-0.052,0.018-0.74,0.284-0.77,0.238
				c0.788-1.036,0.826-0.64,0.001-1.725C74.788,208.803,74.905,208.874,75.027,208.913z M75.426,210.733
				c0.18,0.876-0.061,1.722-0.488,0.385C73.054,211.373,75.272,209.987,75.426,210.733z M74.788,211.277
				c0.079-0.017,0.057,0.004,0.13,0.187c1.437,3.622-3.632,1.428-1.059-0.193C73.86,211.271,74.359,211.359,74.788,211.277z
				 M73.536,213.528c1.438-0.295,0.586,0.429,0.158,0.54c-0.722,0.188-0.526,0.435-0.748-0.622
				C72.927,213.356,73.067,211.968,73.536,213.528z M73.125,215.684c1.315,0.422,1.792,1.013,0.418,0.726
				C73.015,217.922,72.763,216.491,73.125,215.684z M73.637,216.577c1.395,0.134,0.443-0.36,1.656,0.43
				c0.056,1.101,0.17,0.592-0.455,1.655c-0.29-0.038-0.544-0.086-0.844,0.012c-0.107,0.035-0.107,0.011-0.812-0.446
				C73.147,217.56,72.964,217.456,73.637,216.577z M74.938,218.819c0.514-1.643,0.609-0.06,0.509,0.286
				c-0.157,0.543,0.15,0.526-0.887,0.193c-0.045-0.014-0.452-0.434-0.486-0.467C74.224,218.727,74.239,218.727,74.938,218.819z
				 M76.67,220.187c0.904-0.808,1.75-0.935,0.757,0.073C78.873,221.761,76.364,220.461,76.67,220.187z M77.618,220.272
				c0.823-1.144-0.092-0.564,1.206-1.226c0.698,0.355,0.774,0.368,0.788,0.448c0.072,0.433,0.396,0.698,0.413,0.776
				c-0.17,0.214-0.351,0.413-0.403,0.722c-0.023,0.139-0.079,0.094-0.708,0.451C78.433,221.717,77.729,220.393,77.618,220.272z
				 M80.217,220.259c-0.949-1.014-0.189-0.932,0.841,0.008C80.034,221.136,79.339,221.277,80.217,220.259z M82.293,219.551
				c-0.199-0.956-0.119-1.967,0.263-1.147c0.39,0.835,0.166,0.108,1.038,0.402C82.993,219.413,83.313,219.228,82.293,219.551z
				 M82.808,218.666c-0.106-0.267-0.186-0.508-0.427-0.726c-0.091-0.082-0.066-0.107-0.024-0.932
				c0.636-0.414,0.707-0.486,0.776-0.46c0.687,0.26,0.745-0.265,1.003,0.313c0.04,0.091,0.929,1.013,0.026,1.559
				C83.392,218.881,83.814,218.508,82.808,218.666z M84.111,216.412c-2.115,0.388,0.383-0.934,0.441-0.66
				C84.827,217.049,84.533,217.731,84.111,216.412z M84.615,213.842c-0.306,0.925-2.411-0.755-0.506-0.312
				C84.603,211.986,84.768,213.38,84.615,213.842z M82.298,208.965c-0.235-0.804-0.244-2.428,0.425-0.729
				C84.074,207.984,83.608,208.547,82.298,208.965z M83.829,205.279c-0.036-0.049,0.269-0.399,0.305-0.447
				c0.438-0.577,0.444-0.306-0.338-1.336c0.044,0.007,0.079,0.016,0.118,0.024c-0.578-0.23-1.043-0.794,0.167-0.585
				c0.19-0.376,0.409-0.946,0.622-0.14c0.019,0.072,0.023,0.126,0.032,0.187c0.004-0.011,0.007-0.02,0.011-0.032
				c0.519,1.229,0.154,1.059,1.5,0.89c-0.165,0.215-0.371,0.37-0.583,0.537c0.046,0.039,0.613,0.496,0.588,0.551
				c-1.352-0.171-0.987-0.341-1.502,0.888C84.404,204.927,84.991,204.866,83.829,205.279z M85.798,204.423
				c-0.156-0.139,2.165-1.736,0.811-0.036C87.516,205.412,86.813,205.328,85.798,204.423z M86.793,204.396
				c0.58-0.842,0.334-0.791,0.523-0.885c0.664-0.328,0.64-0.389,0.77-0.317c0.539,0.301,0.688,0.342,0.701,0.416
				c0.103,0.571,0.517,0.67,0.334,0.888c-0.345,0.409-0.394,1.389-1.619,0.845C86.987,205.113,87.376,205.043,86.793,204.396z
				 M88.936,203.627c0.558,0.156,0.444-0.007,0.444,0.736C89.19,204.158,89.004,203.945,88.936,203.627z M89.38,204.398
				c0,0.69,0.038,0.631-0.114,0.65C88.835,205.102,88.828,205.064,89.38,204.398z M88.592,208.64
				c-0.629-1.119-0.415-2.137,0.788-2.794C89.38,208.768,89.634,208.68,88.592,208.64z M89.38,202.923
				c-0.279-0.158-0.49-0.325-0.658-0.494C89.55,202.429,89.38,202.3,89.38,202.923z M89.38,203.18c0,1.012-1.103-0.427-1.531-0.149
				c-3.413,2.211-3.453-1.998-2.455,0.314c0.171,0.396,1.398-0.2,1.845-0.567C88.337,201.876,88.435,202.716,89.38,203.18z
				 M85.377,202.429h1.901C86.798,202.917,85.52,203.879,85.377,202.429z M87.473,198.384c-0.001-0.079-0.005-0.159-0.008-0.238
				C88.597,199.094,87.475,198.538,87.473,198.384z M85.277,198.65c-0.182-0.752,0.341-1.935,1.59-0.982
				C86.924,198.938,86.363,198.65,85.277,198.65z M85.039,198.35c0.004-1.236-1.664-1.655-1.741-1.485
				c-0.304,0.658-0.23,1.379,0.025,1.786c-0.895,0-0.924,0.048-0.554-0.13c0-1.713,0.467-2.458,2.153-1.413
				c0.376,0.235,0.449-0.499,1.077-0.066C85.339,197.371,85.108,198.005,85.039,198.35z M85.063,196.567
				c0.106-0.114,0.018-0.136,0.525,0.197C84.725,197.919,83.478,194.889,85.063,196.567z M82.678,195.722
				c-0.905-0.289-1.216-0.674-0.283-0.497C82.524,194.824,83.047,195.03,82.678,195.722z M81.185,194.77
				c-0.043-0.748,0.002-0.304,0.586-0.153C83.377,195.39,81.204,195.122,81.185,194.77z M78.81,192.187
				c-2.492,0.298-2.382,1.793-3.036,0.367c3.078-1.413,2.982-1.415,6.075-0.008C81.232,193.903,81.11,192.461,78.81,192.187z
				 M76.374,194.38c-0.017,0.361,0.082,0.731-0.837,0.703C74.625,195.057,75.547,194.764,76.374,194.38z M74.862,195.723
				c-0.199-0.68-0.15-0.517,0.211-0.704c0.027,0.066,0.052,0.133,0.08,0.204C76.08,195.049,75.76,195.436,74.862,195.723z
				 M73.816,196.383c-0.24,0.267-0.434,0.27-0.693,0.342c0.112-0.529,0.439-0.32,0.153-0.707c0.105-0.063,0.21-0.125,0.314-0.185
				c0.004,0.003,0.009,0.005,0.013,0.008C74.153,196.326,74.025,196.149,73.816,196.383z M73.312,196.205
				c-0.119,0.153-0.243,0.285-0.284,0.51c-0.061,0.336-1.547,0.434-0.578-0.186C72.526,196.604,73.059,195.929,73.312,196.205z
				 M72.487,197.191c2.888-1.785,1.943,1.144,2.414,1.394c0.166,0.088,0.218,0.065-0.683,0.065c0.495-0.789,0.31-2.765-1.309-1.259
				c-0.266,0.248-0.398,0.737-0.451,1.027c0.038-0.612-0.285-1.037-0.832-1.339C72.128,196.729,72.081,197.051,72.487,197.191z
				 M72.264,198.65c-1.388,0-1.374,0.113-1.509-0.342c-0.171-0.577-0.145-0.51,0.731-1.131
				C72.103,197.493,72.427,197.965,72.264,198.65z M72.09,203.171c-0.095,0.248-1.184-0.191-1.722-0.742
				C72.429,202.429,72.472,202.191,72.09,203.171z M70.06,198.44c-0.376,0.245-0.302,0.21-0.396,0.21
				C70.135,198.202,70.07,198.25,70.06,198.44z M71.354,203.317c1.671,0.588,0.493-0.888,1.518-0.888
				c-0.265,1.058-0.65,2.166-3.06,0.608c-0.444-0.288-1.474,1.155-1.474,0.106c0.276-0.145,0.532-0.331,0.765-0.564
				C69.774,201.908,70.396,202.978,71.354,203.317z M68.338,202.89c0-0.581-0.152-0.461,0.59-0.461
				C68.748,202.612,68.551,202.766,68.338,202.89z M69.519,205.745c0.563,0.53,3.475-3.103,3.475,2.01
				c2.207,1.174,2.674,2.415,0.195,3.737c-0.588,0.315,0.576,4.557-3.519,2.049c-0.139-0.085-1.332,1.094-1.332,0.189
				c1.927-1.008,1.576-3.578,0-3.166c0-0.572-0.069-0.092,0.379-0.877c-0.283-0.596-0.379-0.336-0.379-0.893
				c1.573,0.403,1.642-1.86,0.613-2.752C67.262,204.578,69.331,205.568,69.519,205.745z M68.455,209.679
				c-0.038,0.061-0.077,0.121-0.118,0.179C68.338,209.433,68.299,209.407,68.455,209.679z M68.995,206.403
				c0.596,0.646,0.677,2.525-0.657,2.151C68.338,205.702,68.118,205.452,68.995,206.403z M69.053,210.706
				c0.613,1.079,0.443,2.094-0.716,2.768C68.338,210.527,68.1,210.691,69.053,210.706z M68.822,216.815
				c0.862,0.761,0.841,2.692-0.484,2.324C68.338,216.142,68.176,216.245,68.822,216.815z M73.535,224.111
				c1.997-0.324-0.331,1.276-0.575-0.02C72.922,223.888,73.088,222.578,73.535,224.111z M88.616,219.235
				c-0.623-0.833-0.53-2.1,0.763-2.805C89.38,219.409,89.629,219.224,88.616,219.235z M88.815,213.111
				c-0.813-0.727-0.881-2.738,0.564-2.293C89.38,213.829,89.568,213.786,88.815,213.111z M88.572,210.471
				c-0.302,0-1.4,2.213,0.807,3.292c0,1.048-1.084-0.425-1.557-0.125c-2.504,1.581-3.165,0.39-3.165-2.043
				c-2.026-0.978-2.841-2.468-0.001-3.836c0-2.464,0.697-3.647,3.203-2.016c0.295,0.191,0.323-0.236,1.52-0.547
				c0,0.705-2.428,1.45-0.913,3.677c1.05,0.059,0.913-0.351,0.913,0.165C88.189,210.338,90.636,210.465,88.572,210.471z
				 M89.195,209.676c0.057-0.098,0.119-0.189,0.184-0.276C89.38,210.038,89.439,210.091,89.195,209.676z M76.96,179.661
				c0-2.443,3.692-2.44,3.692,0C80.652,182.105,76.96,182.102,76.96,179.661z M78.163,187.894c0.258,0.548,1.033,0.551,1.293,0
				c1.533,0.302,2.693,1.656,2.693,3.276c0,1.959-1.06-0.282-3.34-0.282c-2.271,0-3.34,2.27-3.34,0.282
				C75.47,189.549,76.63,188.196,78.163,187.894z M72.21,194.44c3.506-2.121,2.96-1.658,3.421-1.011
				c-8.189,3.91-6.746,5.81-8.737,5.81C67.58,197.796,69.408,196.135,72.21,194.44z M91.13,219.396
				c-0.073,3.544-8.602,8.909-12.455,9.995c-2.385-0.62-12.006-6.263-12.087-9.992c0-19.034-0.327-17.125,0.734-17.125
				c0,18.809-1.6,18.156,5.204,22.918c3.021,2.115,5.771,3.38,6.381,3.502c0.607-0.122,3.336-1.387,6.33-3.5
				c6.632-4.681,5.159-3.672,5.159-22.92C91.43,202.274,91.13,199.785,91.13,219.396z"/>
			<path style="fill:#303445;" d="M72.899,224.106c0.063,0.174,0.043,0.136-0.032,0.082
				C72.878,224.161,72.888,224.134,72.899,224.106z"/>
			<path style="fill:#303445;" d="M73.816,224.659c0.023,0.053,0.03,0.02-0.063,0.141C73.607,224.702,73.599,224.737,73.816,224.659
				z"/>
			<path style="fill:#303445;" d="M84.721,224.147c0.052-0.003,0.029-0.019,0.082,0.107
				C84.647,224.366,84.676,224.389,84.721,224.147z"/>
			<polygon style="fill:#303445;" points="78.766,193.42 78.768,193.419 78.767,193.42 			"/>
			<path style="fill:#303445;" d="M76.272,221.186c-1.475,2.473,2.151,5.173,2.507,2.462
				C79.046,221.615,76.381,220.998,76.272,221.186z M78.546,223.668c-0.276,1.702-2,0.469-2.241-0.348
				C75.314,219.97,78.868,221.685,78.546,223.668z"/>
			<path style="fill:#303445;" d="M81.363,221.156c-3.356,0.214-2.53,3.589-1.957,3.595
				C81.497,224.777,82.209,222.725,81.363,221.156z M81.373,223.212c-0.284,1.271-2.644,2.19-2.272-0.16
				C79.29,221.855,82.074,220.089,81.373,223.212z"/>
			<path style="fill:#303445;" d="M80.637,205.396c1.445,0.962,3.481-0.736,3.192-1.127
				C81.961,201.738,78.352,203.874,80.637,205.396z M80.963,203.443c0.962-0.486,3.339,0.458,2.243,1.402
				C81.375,206.417,78.801,204.536,80.963,203.443z"/>
			<path style="fill:#303445;" d="M73.748,204.38c0.693,1.231,2.889,2.201,4.104,0.087C78.2,203.86,75.463,201.67,73.748,204.38z
				 M75.688,203.305c0.817-0.177,1.527,0.363,1.945,1.08C76.066,206.977,71.984,204.107,75.688,203.305z"/>
			<path style="fill:#303445;" d="M81.387,208.738c1.477-2.403-2.152-5.186-2.516-2.452
				C78.605,208.287,81.252,208.961,81.387,208.738z M79.112,206.231c0.295-1.638,1.99-0.423,2.229,0.372
				C82.341,209.919,78.756,208.213,79.112,206.231z"/>
			<path style="fill:#303445;" d="M76.559,208.754c2.904-0.449,2.361-3.575,1.68-3.572
				C75.219,205.207,75.779,208.879,76.559,208.754z M78.118,205.414c0.464-0.025,1.191,2.573-1.495,3.106
				C76.061,208.633,75.54,205.56,78.118,205.414z"/>
			<path style="fill:#303445;" d="M86.198,219.26c-1.525-1.024-3.449,0.775-3.204,1.107C84.85,222.895,88.442,220.768,86.198,219.26
				z M85.249,221.361c-0.579,0.046-2.907-0.686-1.398-1.736C86.183,218.004,87.933,221.143,85.249,221.361z"/>
			<path style="fill:#303445;" d="M85.44,215.908c-1.514,2.363,2.022,5.054,2.49,2.592C88.346,216.315,85.551,215.722,85.44,215.908
				z M87.707,218.447c-0.306,1.58-1.991,0.409-2.232-0.43C84.505,214.643,88.086,216.497,87.707,218.447z"/>
			<path style="fill:#303445;" d="M73.231,219.079c-1.352-0.511-3.833,0.882-1.728,2.219
				C73.06,222.286,76.426,220.287,73.231,219.079z M71.777,221.191c-2.224-1.143,0.762-3.266,2.61-1.021
				C74.63,220.458,72.965,221.802,71.777,221.191z"/>
			<path style="fill:#303445;" d="M70.276,216.693c-0.917,0.85-0.98,3.559,1.144,2.516
				C73.219,218.327,72.966,214.198,70.276,216.693z M70.245,219.231c-0.94-1.621,0.301-2.988,1.731-3.122
				C72.34,216.072,72.928,219.288,70.245,219.231z"/>
			<path style="fill:#303445;" d="M79.395,214.169c2.23,0.002,2.726-2.081,1.972-3.596
				C78.166,210.573,78.759,214.169,79.395,214.169z M79.107,212.436c0.155-0.866,2.43-2.864,2.354-0.464
				C81.396,214.025,78.669,214.886,79.107,212.436z"/>
			<path style="fill:#303445;" d="M76.963,213.864c2.107,1.152,2.205-1.507,1.298-2.409
				C75.631,208.844,75.23,212.918,76.963,213.864z M76.356,210.954c0.15-0.425,2.509,0.389,2.18,2.177
				C78.201,214.943,75.477,213.431,76.356,210.954z"/>
			<path style="fill:#303445;" d="M80.328,215.915c-1.874-0.653-1.72,1.786-0.94,2.565C82.124,221.21,82.527,216.68,80.328,215.915z
				 M79.644,218.411c-0.734-0.654-0.69-1.693-0.221-2.394C82.023,215.686,82.388,220.86,79.644,218.411z"/>
			<path style="fill:#303445;" d="M78.258,215.771c-2.145-0.033-2.767,1.984-1.975,3.596
				C79.424,219.366,78.929,215.782,78.258,215.771z M78.563,217.362c-0.135,1.426-3.101,3.003-2.278-0.095
				C76.606,216.056,78.768,215.191,78.563,217.362z"/>
			<path style="fill:#303445;" d="M81.181,213.702c-2.603,0.788-0.761,2.789,0.69,2.586
				C85.338,215.808,83.103,213.12,81.181,213.702z M83.576,214.887c0.229,0.288-2.177,2.442-3.56,0.08
				C80.991,213.379,82.6,213.679,83.576,214.887z"/>
			<path style="fill:#303445;" d="M76.396,216.254c2.787-0.72,0.781-3.033-0.926-2.546
				C72.164,214.654,74.945,216.629,76.396,216.254z M74.945,215.773c-2.136-1.135,0.757-2.222,1.713-1.758
				C78.637,214.976,76.693,216.703,74.945,215.773z"/>
			<path style="fill:#303445;" d="M71.467,210.751c-2.218-1.147-2.053,1.644-1.245,2.441
				C72.869,215.808,73.221,211.656,71.467,210.751z M72.112,213.7c-0.144,0.39-2.468-0.432-2.181-2.156
				C70.242,209.68,73.022,211.212,72.112,213.7z"/>
			<path style="fill:#303445;" d="M71.59,208.531c1.577-0.94,1.245-5.034-1.406-2.331C69.29,207.112,69.439,209.814,71.59,208.531z
				 M72.049,205.512c1.178,2.322-1.824,4.377-2.127,2.231C69.741,206.457,70.952,205.656,72.049,205.512z"/>
			<path style="fill:#303445;" d="M71.752,208.506c-2.412,1.111-0.145,3.065,1.686,2.262
				C76.234,209.542,73.068,207.9,71.752,208.506z M72.924,210.718c-0.873,0.241-1.624-0.261-2.08-1.043
				C72.331,207.17,76.306,209.783,72.924,210.718z"/>
			<path style="fill:#303445;" d="M85.61,205.293c-0.541-0.06-1.246,3.618,1.835,3.585C87.935,208.871,88.849,205.661,85.61,205.293
				z M87.715,207.825c-0.371,2.091-3.307-0.223-2.113-2.307C86.646,205.602,87.954,206.475,87.715,207.825z"/>
			<path style="fill:#303445;" d="M87.423,210.471c-2.108-0.012-2.796,2.021-1.964,3.593
				C88.528,214.064,88.155,210.475,87.423,210.471z M87.71,212.24c-0.173,0.856-2.424,2.806-2.347,0.426
				C85.435,210.508,88.201,209.82,87.71,212.24z"/>
			<path style="fill:#303445;" d="M85.642,210.939c2.721-0.826,0.61-3.268-1.416-2.365C81.331,209.868,84.651,211.24,85.642,210.939
				z M84.805,210.738c-2.308-0.575-1.575-1.786,0.056-2.134C87.07,208.133,87.384,211.382,84.805,210.738z"/>
			<path style="fill:#303445;" d="M88.489,214.972c-0.59-0.694-0.433-0.591-0.981-0.003
				C88.099,215.601,87.874,215.633,88.489,214.972z M87.692,214.965c0.353-0.379,0.257-0.41,0.614,0.008
				C87.943,215.364,88.062,215.37,87.692,214.965z"/>
			<path style="fill:#303445;" d="M69.156,214.97c0.593,0.629,0.369,0.661,0.987-0.002C69.549,214.337,69.777,214.304,69.156,214.97
				z M69.96,214.969c-0.374,0.402-0.23,0.42-0.621,0C69.71,214.568,69.569,214.548,69.96,214.969z"/>
			<path style="fill:#303445;" d="M69.159,204.378c0.597,0.695,0.431,0.598,0.983,0.004
				C69.55,203.751,69.776,203.723,69.159,204.378z M69.651,204.716c-0.375-0.403-0.392-0.249-0.002-0.664
				C70.041,204.465,70.024,204.313,69.651,204.716z"/>
			<path style="fill:#303445;" d="M88.493,204.38c-0.593-0.629-0.367-0.657-0.989,0.002
				C88.103,205.016,87.878,205.045,88.493,204.38z M87.688,204.383c0.374-0.397,0.232-0.416,0.623-0.001
				C87.934,204.785,88.081,204.8,87.688,204.383z"/>
			<path style="fill:#303445;" d="M74.692,217.353c-0.837-0.196-0.665-0.304-0.87,0.396c-0.049,0.166-0.106,0.116,0.664,0.295
				C74.556,217.807,74.622,217.589,74.692,217.353z M73.951,217.784c0.16-0.542,0.038-0.452,0.575-0.333
				C74.364,217.973,74.506,217.914,73.951,217.784z"/>
			<path style="fill:#303445;" d="M83.65,217.191c-0.872,0.205-0.734,0.025-0.485,0.853
				C83.926,217.869,83.971,218.049,83.65,217.191z M83.124,217.451c0.532-0.121,0.408-0.212,0.577,0.331
				C83.168,217.91,83.292,218,83.124,217.451z"/>
			<path style="fill:#303445;" d="M78.815,209.165c-0.559,0.594-0.545,0.449-0.235,0.775c0.307,0.326,0.167,0.341,0.735-0.267
				C78.808,209.137,78.928,209.258,78.815,209.165z M78.839,209.99c-0.466-0.296-0.264-0.376-0.014-0.642
				C79.194,209.742,79.207,209.593,78.839,209.99z"/>
			<path style="fill:#303445;" d="M73.788,222.641c0.215,0.836,0.069,0.723,0.907,0.528
				C74.44,222.339,74.663,222.435,73.788,222.641z M74.082,223.174c-0.16-0.52-0.248-0.407,0.308-0.537
				C74.561,223.179,74.614,223.047,74.082,223.174z"/>
			<path style="fill:#303445;" d="M83.811,222.84c0.076-0.251,0.142-0.179-0.636-0.359c-0.079,0.212-0.015,0.007-0.216,0.682
				C83.777,223.395,83.642,223.405,83.811,222.84z M83.125,223.072c0.159-0.523,0.017-0.462,0.577-0.331
				C83.54,223.26,83.682,223.198,83.125,223.072z"/>
			<path style="fill:#303445;" d="M83.663,206.612c-0.902,0.162-0.729,0.088-0.496,0.848C84.01,207.26,83.921,207.47,83.663,206.612
				z M83.122,206.865c0.535-0.124,0.411-0.213,0.577,0.331C83.146,207.327,83.287,207.388,83.122,206.865z"/>
			<path style="fill:#303445;" d="M74.693,206.768c-0.846-0.197-0.649-0.34-0.913,0.529
				C74.629,207.491,74.431,207.637,74.693,206.768z M74.084,206.763c0.5,0.116,0.488,0.02,0.303,0.531
				C73.885,207.184,73.912,207.311,74.084,206.763z"/>
			<path style="fill:#303445;" d="M73.989,212.747c0.847-0.195,0.76,0.017,0.493-0.855
				C73.635,212.092,73.729,211.878,73.989,212.747z M74.526,212.486c-0.531,0.125-0.407,0.212-0.573-0.313
				C74.461,211.932,74.413,212.12,74.526,212.486z"/>
			<path style="fill:#303445;" d="M82.958,212.584c0.843,0.197,0.646,0.342,0.91-0.527
				C83.021,211.859,83.218,211.716,82.958,212.584z M83.702,212.153c-0.162,0.524-0.02,0.46-0.577,0.334
				C83.291,211.941,83.166,212.033,83.702,212.153z"/>
			<path style="fill:#303445;" d="M78.82,219.743c-0.581,0.625-0.611,0.385,0.006,1.042C79.421,220.145,79.43,220.355,78.82,219.743
				z M78.518,220.262c0.368-0.394,0.228-0.414,0.614,0C78.763,220.654,78.905,220.673,78.518,220.262z"/>
			<path style="fill:#303445;" d="M81.537,196.876c1.785-1.002-0.639-1.67-1.116-1.54C78.501,195.858,79.988,197.744,81.537,196.876
				z M80.177,196.818c-1.392-0.799,0.548-2.116,1.785-0.74C82.238,196.386,81.021,197.303,80.177,196.818z"/>
			<path style="fill:#303445;" d="M77.466,195.479c-1.076-0.644-2.232,0.654-2.152,0.767
				C76.634,198.111,79.168,196.496,77.466,195.479z M77.756,196.489c-0.707,0.819-1.776,0.453-2.277-0.283
				C76.582,194.715,78.316,195.841,77.756,196.489z"/>
			<path style="fill:#303445;" d="M75.939,197.842c-0.581-0.136-0.446-0.234-0.624,0.361
				C75.894,198.338,75.758,198.438,75.939,197.842z M75.43,198.137c0.114-0.374,0.028-0.312,0.396-0.229
				C75.714,198.267,75.812,198.224,75.43,198.137z"/>
			<path style="fill:#303445;" d="M81.61,197.85c0.152,0.562,0.039,0.489,0.621,0.352C82.086,197.733,82.18,197.636,81.61,197.85z
				 M81.81,198.202c-0.115-0.368-0.151-0.278,0.213-0.365C82.13,198.186,82.177,198.127,81.81,198.202z"/>
		</g>
		<g>
			<path style="fill:#303445;" d="M134.006,229.979c-0.885,0,0.109-1.642-5.96-5.282c-4.182-2.509-3.035-0.93-3.035-2.787
				c0-2.249-1.539-3.325-3.618-4.235c-0.19-3.992,0.274-2.447,0.274-3.248c0-0.644-0.391,0.094-0.453-1.596
				c3.025-0.138,3.104-4.609,0.077-4.846c0-19.664-0.009-16.143-0.023-29.322h-0.275c-0.015,13.193-0.023,9.677-0.023,29.316
				c-1.28,0.071-2.302,1.125-2.302,2.422c0,2.329,2.34,2.302,2.329,2.581c-0.035,0.929-0.034,0.896-0.034,0.904
				c-0.534,0.142-0.562,0.886-0.041,1.068c-0.001,0.022,0.001-0.021-0.101,2.719c-0.026,0.336-4.662,1.223-3.46,5.331
				c-2.795,1.337-7.64,4.115-8.79,6.975c-2.574,0-2.308,3.035-0.251,3.035c0,13.053-0.005,16.345-0.007,16.998
				c0.001-0.138,0.003-0.274,0.007,0.135c0.078,3.837,8.987,9.322,12.199,10.43c-0.094,0.319,0.056,0.619,0.311,0.761
				c-0.251,1.106-0.084,3.094,0.32,3.094c0.469,0,0.534-2.148,0.319-3.094c0.248-0.138,0.395-0.423,0.321-0.73
				c2.936-0.958,12.12-6.48,12.202-10.466c0-17.404-0.077-17.128,0.014-17.128C136.122,233.014,136.124,229.979,134.006,229.979z
				 M127.756,225.181c2.826,1.695,4.67,3.356,5.362,4.798c-1.984,0-0.578-1.916-8.826-5.818
				C124.752,223.511,124.198,223.046,127.756,225.181z M131.268,251.077c-1.243,1.939-1.165,1.178-1.392,0.791
				c-0.127-0.216-1.087,0.05-1.391,0.206c-1.606,0.826-0.674,2.408-1.233,2.811c-0.328-0.825-0.298-1.394-0.298-1.941
				c-4.348-2.767,0.047-3.022-0.001-4.059c-0.127-2.878,1.268-3.049,3.343-1.735c0.43-0.268,0.781-0.475,1.38-0.631
				c0,0.721,0.108,0.117-0.749,0.909c-0.922,0.852-0.917,3.146,0.749,2.666C131.677,250.558,131.15,250.874,131.268,251.077z
				 M127.704,254.553c-0.034-0.185-0.049-0.372-0.043-0.562C127.745,251.453,132.406,251.025,127.704,254.553z M126.046,255.33
				c-0.091-0.029-1.213-0.785,0.36-0.477C127.003,253.05,127.525,255.811,126.046,255.33z M126.234,255.594
				c-0.048-0.063-0.094-0.123-0.143-0.187C126.509,255.482,126.38,255.496,126.234,255.594z M122.946,257.316
				c0.077,0.051,0.134,0.085,0.171,0.107c-0.17-0.086-0.714-0.324-1.421-0.331c-0.361-0.004-0.518,1.271-0.609,1.236
				c-0.094-1.283-0.713-1.586-1.884-0.896c-0.073-0.038,1.157-0.863,0.937-1.24c-0.919-1.581-2.517-1.552-3.692-0.388
				c-0.649-0.423,1.346-1.284,1.331-1.624c-0.116-2.528,1.066-3.205,3.191-1.831c0.476,0.307,3.751-2.721,3.491,1.843
				c-0.02,0.344,2.052,1.224,1.385,1.661C123.91,253.848,120.764,255.885,122.946,257.316z M125.652,255.977
				c-0.172,0.111-2.15,1.362-2.276,1.309C121.042,256.301,123.688,254.035,125.652,255.977z M122.869,257.6
				c-1.688,0.874-1.488,0.701-1.46,0.542C121.547,257.372,121.789,257.013,122.869,257.6z M120.849,258.231
				c-0.103-0.044-1.463-0.645-1.363-0.692C120.425,257.101,120.716,257.277,120.849,258.231z M118.896,257.268
				c-2.004-1.09-3.109-1.601-0.881-2.056C119.093,254.993,120.962,256.425,118.896,257.268z M114.759,253.472
				c-0.237-1.379-2.168-2.381-2.638-1.088c-0.509-0.526-1.456-1.673-1.486-2.268c1.552,0.397,1.588-1.784,0.744-2.626
				c-0.827-0.826-0.745-0.186-0.745-0.954c0.563,0.156,0.913,0.364,1.312,0.615c2.034-1.275,3.488-1.199,3.343,1.753
				c-0.026,0.515,4.218,1.863,0.155,3.932c-0.363,0.185,0.084,0.643-0.429,1.986C114.491,254.444,114.977,254.742,114.759,253.472z
				 M114.55,254.48c-2.637-1.978-2.272-1.954-2.061-2.356C112.659,251.802,114.925,252.144,114.55,254.48z M112.485,228.922
				c0.438-0.373,0.318-0.32,0.366-0.042c0.112,0.659,0.518,0.51-0.594,0.51C112.557,229.215,112.475,229.339,112.485,228.922z
				 M117.006,225.965c0.236,0.625-0.158,0.653,0.646,0.369c-0.254,0.731-0.778,0.187,0.011,1.221
				c-0.865-0.155-0.348-0.447-0.653,0.378c-0.356-0.852-0.152-0.746-1.049-0.603c0.054-0.095,0.137-0.152,0.419-0.38
				c-0.519-0.437-0.441-0.379-0.268-0.356C116.835,226.686,116.663,226.82,117.006,225.965z M116.512,226.334
				c0.642-0.76,0.184,0.16,0.004,0.161C115.765,226.499,116.24,226.326,116.512,226.334z M126.165,226.587
				c-0.052,0.06-0.092,0.115-0.124,0.167c0.283-0.27,0.24-0.234,0.561-0.046c-0.045,0.064-0.108,0.141-0.196,0.243
				c0.608,0.663,0.163,0.62-0.458,0.096c0.012,0.406,0.745,0.341-0.522,0.18c-0.391,0.93-0.276,0.868-0.408,0.151
				c-1.302,0.465,0.319,0.096-0.529-1.018c0.091-0.008,0.144,0.018,0.524,0.165c0.139-0.579,0.077-0.66,0.166-0.448
				C125.586,227.059,125.272,226.494,126.165,226.587z M125.567,226.231c0.038,0.091,1.213,0.263,0.07,0.265
				C125.259,226.496,125.278,225.545,125.567,226.231z M129.876,229.391c-1.062,0-0.747,0.108-0.624-0.355
				c0.151-0.572-0.089-0.644,0.394-0.247C129.685,229.363,129.542,229.195,129.876,229.391z M126.743,237.445
				c0.102,0.085,0.05,0.096,0.038,0.856c-0.006,0.37-1.569,0.792-1.751,0.328c-0.199-0.51-0.426-0.489-0.416-0.692
				c0.041-0.763-0.01-0.762,0.101-0.829c0.545-0.329,0.903-0.458,1.151-0.47c-0.665,0.02-0.145-0.449,0.959-0.799
				c0.356,1.31-0.003,2.109-0.415,0.724c-0.221,0.046-0.39,0.068-0.521,0.074C126.427,236.626,126.433,237.187,126.743,237.445z
				 M125.328,241.299c-1.261-0.227-0.508-0.653-0.952,0.551c-0.52-1.243-0.221-1.088-1.531-0.879
				c0.067-0.118,0.129-0.164,0.611-0.554c-0.16-0.135-0.274-0.232-0.363-0.309c0.22,0.308,0.122,0.739-1.035,1.061
				c0.067-0.317,0.25-0.533,0.458-0.749c-0.723-0.814-0.065-0.816,0.367-0.515c-0.033-0.053,0.058-0.024,0.183-0.008
				c1.057,0.135,0.805,0.329,1.304-0.917c0.343,0.908-0.229,0.952,0.942,0.539C124.938,240.595,124.151,239.755,125.328,241.299z
				 M126.308,244.106c-0.292-0.042-0.551-0.092-0.837,0.014c-0.123,0.046-0.114-0.015-0.746-0.39
				c-0.132-0.079-0.062-0.095-0.109-0.808c-0.011-0.164,0.031-0.31,0.111-0.435c-0.04,0.044-0.084,0.09-0.142,0.14
				c-0.11-0.453-0.217-0.602-0.099-0.99c0.188-0.621-0.152-0.597,0.891-0.26c0.091,0.03,0.956,0.619,0.074,0.547
				c-0.788-0.063-0.344,0.069-0.662,0.49C125.43,241.627,127.626,241.851,126.308,244.106z M128.082,245.693
				c0.989-0.894,1.694-1.091,0.824,0.021c0.896,0.975,0.244,0.924-0.696,0.122c0.086,0.094,0.206,0.226,0.372,0.421
				c-1.295-0.165-1.059-0.272-1.328,0.372c-0.309,0.737-0.152,0.741-0.379-0.297c-0.481,0.185-0.272,0.111-0.764,0.271
				c0.365-1.072,1.171-0.218-0.023-1.788c1.262,0.261,0.534,0.624,0.955-0.545c0.521,1.247,0.22,1.083,1.528,0.879
				C128.249,245.735,127.923,245.503,128.082,245.693z M131.677,245.687c-0.193-0.205-0.38-0.419-0.44-0.73
				C131.792,245.101,131.677,244.946,131.677,245.687z M131.265,246.453c-0.011-0.177,0.01-0.216,0.412-0.733
				C131.677,246.473,131.784,246.32,131.265,246.453z M131.407,245.835c-0.224,0.27-0.372,0.72-0.409,0.738
				c-0.69,0.347-0.663,0.394-0.785,0.326c-0.578-0.324-1.267-0.403-0.715-1.929c0.196-0.541,1.528-0.482,1.647,0.16
				C131.22,245.532,131.607,245.594,131.407,245.835z M125.012,252.433c-0.69,2.244-1.172-2.294,0.85,0.031
				C125.585,252.563,125.304,252.503,125.012,252.433z M126.013,252.563c0.942,0.573,1.157,0.504,0.294,2.136
				c-0.729-0.159-1.661,0.352-1.692-1.235c0-0.013,0.338-0.435,0.46-0.803C125.084,252.637,125.725,252.693,126.013,252.563z
				 M124.547,251.622c-0.241,0.963,0.008,1.234-0.604-0.217c-1.456,0.185-1.291,0.281-0.491-0.4
				c-0.723-0.686-1.05-0.605,0.475-0.409c0.58-1.046,0.353-1.587,0.612-0.22c0.049-0.017,0.746-0.283,0.775-0.24
				c-0.828,1.085-0.795,0.685,0.018,1.753C125.043,251.829,124.806,251.716,124.547,251.622z M117.223,252.436
				c-1.336,0.304-0.866-0.314,0.421-0.722C117.859,252.124,117.997,254.292,117.223,252.436z M117.519,254.316
				c-0.529,0.317-0.639,0.424-0.71,0.398c-0.414-0.156-0.796-0.007-0.881-0.027c-0.109-0.274-0.195-0.523-0.434-0.721
				c-0.091-0.076-0.048-0.105-0.031-0.86c0.002-0.103-0.007-0.076,0.689-0.507c0.187-0.115,0.134,0.166,0.979-0.005
				C117.173,252.686,117.999,254.028,117.519,254.316z M117.703,251.627c-1.087,0.385-0.915,0.463-0.128-0.617
				c-0.602-0.99-1.124-1.075,0.123-0.629c0.161-0.874,0.127-0.787,0.18-0.787c0.506,1.206,0.141,1.039,1.507,0.865
				c-0.069,0.132-0.182,0.207-0.593,0.539c0.047,0.04,0.603,0.485,0.58,0.543c-1.349-0.171-0.986-0.34-1.503,0.891
				C117.768,252.159,117.758,251.893,117.703,251.627z M111.006,246.459c-0.467-0.12-0.371,0.021-0.371-0.656
				C110.803,245.992,110.955,246.187,111.006,246.459z M110.635,245.055c0.118-0.031,0.239-0.064,0.377-0.101
				C110.992,245.044,110.635,246.109,110.635,245.055z M110.756,245.74c-0.084-0.091,0.685-0.997,0.468-0.881
				c1.448-0.78,1.385,0.243,1.938,0.845c-0.169,0.211-0.363,0.419-0.416,0.734c-0.025,0.147-0.072,0.097-0.705,0.454
				C111.564,247.16,110.84,245.834,110.756,245.74z M113.323,245.73c-0.494-0.753-0.372-0.543-0.446-0.781
				C115.739,245.766,111.898,247.336,113.323,245.73z M113.961,245.974c0.504-0.442,0.418-0.068-0.313-0.817
				c1.346,0.172,1.011,0.409,1.551-0.881c0.344,0.892-0.239,0.946,0.921,0.536c0.027,0.044-0.611,0.855-0.643,0.896
				c0.861,1.135,0.955,1.004-0.106,0.625c-0.229,0.986-0.001,1.219-0.592-0.198C113.758,246.141,113.34,246.52,113.961,245.974z
				 M111.012,235.876c-0.475-0.124-0.377,0.017-0.377-0.658c0.071,0.078,0.137,0.161,0.195,0.248
				c-0.184-0.418,0.255-0.712,0.316-1.071c0.025-0.145,0.08-0.104,0.703-0.455c0.494-0.281,1.196,1.049,1.285,1.148
				c0.081,0.091-0.105-0.013-0.388,0.763c-0.054,0.146,0.038,0.064-0.799,0.492c-0.582-0.295-0.891-0.536-1.042-0.747
				C110.95,235.682,110.989,235.773,111.012,235.876z M110.635,234.468c0.118-0.03,0.239-0.062,0.372-0.096
				C110.989,234.462,110.635,235.526,110.635,234.468z M113.343,235.123c-0.938-1.037-0.176-0.923,0.843,0.006
				C112.925,236.197,112.48,236.083,113.343,235.123z M114.284,235.125c-0.77-0.689-0.999-0.597,0.485-0.412
				c0.566-1.349,0.396-1.253,0.595-0.216c0.994-0.333,1.025-0.572,0.121,0.612c0.595,0.971,1.134,1.107-0.119,0.636
				c-0.208,1.035-0.012,1.18-0.599-0.214C113.322,235.717,113.455,235.821,114.284,235.125z M118.789,225.066
				c0.438-0.199,0.276-0.223,0.359,0.216c0.331,1.755,1.899,1.156,1.937,0.167c0.003,0.093,0.012,0.192,0.034,0.303
				c0.253,1.28,1.907,0.495,1.91-0.872c0.355,0.156,0.314,0.121,0.323,0.219c0.107,1.174,0.563,0.318,1.376,1.851
				c-0.709,1.338-1.327,0.869-1.37,1.753c-0.039,0.827-0.173,0.688-0.363,0.688c0.288-1.651-1.688-2.707-1.894-1.136
				c-0.062,0.473,0.078,0.838,0.394,1.136c-1.445,0-0.626,0.168-0.47-0.665c0.37-1.966-1.595-1.214-1.852-0.227
				c-0.237,0.915,0.218,0.892-0.27,0.892c-0.151-0.487-0.126-0.808-0.126-1.125c-1.39-0.671-1.946-1.692,0-2.63
				C118.777,225.424,118.765,225.307,118.789,225.066z M121.086,225.391c-0.007-0.328-0.18-0.693-0.623-1.027
				c0.465-0.173,0.419-0.169,0.51-0.11c0.113,0.073,0.161,0.018,0.293-0.06C122.173,224.474,121.091,224.356,121.086,225.391z
				 M121.7,224.531c0.19-0.154,0.084-0.191,1.175,0.281c0.025,0.927-0.549,1.461-1.401,1.427
				C121.127,225.621,121.139,224.987,121.7,224.531z M120.873,225.681c-0.2,1.127-1.383,0.313-1.545-0.3
				C119.029,224.251,121.16,224.07,120.873,225.681z M126.464,233.169c-0.037,0.073-0.071,0.149-0.099,0.227
				C126.254,233.697,123.049,233.169,126.464,233.169z M125.624,229.025c-0.628-2.252,1.846-1.044,1.516,0.366
				C125.778,229.391,125.76,229.511,125.624,229.025z M124.663,236.943c-0.528,0.28,0.51,4.589-3.538,2.036
				c-2.032,1.241-3.485,1.234-3.346-1.75c0.012-0.277-2.31-1.587-1.918-2.255c0.531-0.908,1.426-1.805,2.606-1.805
				c0.434,0.971,2.381,2.048,2.613,0c0.271,0-0.083,1.895,1.872,0.867c1.193-0.628,0.193-0.867,1.533-0.867
				C124.614,233.421,128.441,234.932,124.663,236.943z M117.591,247.534c-2.513-1.332-1.995-2.594,0.185-3.749
				c0-4.324,2.18-2.345,3.353-1.937c4.182-2.596,2.822,1.663,3.521,2.034c2.579,1.366,1.932,2.599-0.191,3.757
				c0,2.572-0.713,3.558-3.14,2.048c-0.338-0.208-2.563,1.192-2.957,0.504C117.364,248.44,118.121,247.816,117.591,247.534z
				 M118.892,240.418c0.953-0.87,1.709-1.125,0.843,0.005C120.683,241.43,119.918,241.332,118.892,240.418z M121.122,241.631
				c-0.636-0.324-0.773-0.368-0.787-0.448c-0.141-0.815-0.573-0.377-0.189-1.077c0.189-0.345,0.145-0.485,0.284-0.555
				c0.671-0.335,0.646-0.393,0.785-0.315c0.485,0.272,0.675,0.325,0.693,0.421c0.058,0.295,0.22,0.529,0.423,0.752
				c-0.174,0.224-0.355,0.417-0.415,0.743C121.897,241.267,121.919,241.225,121.122,241.631z M115.339,233.169
				c0.3,0,0.307-0.102,0.495,0.509C117.966,233.338,114.711,235.532,115.339,233.169z M120.571,234.012
				c-0.12,0.228-1.431-0.028-1.855-0.843C120.917,233.169,121.156,232.902,120.571,234.012z M120.686,227.699
				c0.351,0.66,0.229,1.201-0.1,1.533c-0.209,0.211-0.073,0.159-1.294,0.159C119.004,227.853,120.564,227.469,120.686,227.699z
				 M118.693,229.059c0.033,0.126,0.086,0.306,0.09,0.331C118.643,229.391,118.228,229.475,118.693,229.059z M123.526,233.169
				c-0.345,0.663-1.919,1.647-2.134,0H123.526z M121.48,227.654c0.797,0.014,1.212,0.406,1.332,0.873
				c0.276,1.074-0.029,0.863-1.076,0.863C121.129,228.909,121.126,228.234,121.48,227.654z M123.357,229.391
				c0.028-0.105,0.057-0.212,0.089-0.33C123.89,229.457,123.501,229.391,123.357,229.391z M124.613,229.391
				c-0.963,0-1.179,0.081-1.123-1.046c0.655-0.426,1.136-0.315,1.183-0.189C124.777,228.433,125.365,228.908,124.613,229.391z
				 M124.694,227.936c-1.416,0.261,0.42-1.081,0.402,0.077C125.087,228.633,124.877,228.527,124.694,227.936z M118.037,227.946
				c-0.159,0.081-0.387,0.024-0.593-0.007C116.985,229.35,116.658,226.501,118.037,227.946z M117.228,228.527
				c0.154-0.129,0.213-0.309,0.28-0.483c0.197,0.03,0.371,0.062,0.575-0.003c0.38-0.122,0.766,0.757,0.566,0.928
				c-0.135,0.114-0.215,0.261-0.273,0.422c-1.027,0-1.185-0.127-1.186-0.27C117.185,228.623,117.14,228.601,117.228,228.527z
				 M116.839,233.557c-0.635-0.274-0.826,0.181-0.984-0.224c-0.09-0.233-0.352-0.163,1.623-0.163
				C117.271,233.292,117.066,233.419,116.839,233.557z M114.972,228.842c0.106-0.594,1.666-1.963,1.614-0.318
				c-0.009,0.297-0.071,0.631-0.254,0.867C114.938,229.391,114.846,229.55,114.972,228.842z M115.279,236.478
				c0.21-0.79-0.082-0.712,0.923-0.391c0.091,0.028,1.189,0.802-0.364,0.476C115.359,238.028,115.218,236.706,115.279,236.478z
				 M115.485,237.459c0.269-0.219,0.339-0.489,0.445-0.734c0.319,0.042,0.546,0.094,0.841-0.012
				c0.115-0.041,0.068-0.039,0.829,0.454c0,1.277,0.162,0.45-0.386,1.468c-0.118,0.218,0.032,0.202-0.303,0.15
				c-0.561-0.087-0.596,0.143-0.789,0.014c-0.607-0.404-0.658-0.36-0.658-0.51C115.463,237.798,115.409,237.521,115.485,237.459z
				 M117.23,238.978c0.448-1.347,0.715-0.636,0.44,0.674C117.617,239.907,115.196,238.594,117.23,238.978z M117.324,239.653
				c0.679,0.215,0.182,0.298,0.545-0.666c0.532,1.27,0.214,1.053,1.504,0.882c0.029,0.063,0.085-0.016-0.577,0.546
				c1.49,1.273-0.233-0.237-0.716,0.915c-0.305,0.73-0.16,0.749-0.378-0.289c-0.052,0.018-0.74,0.284-0.77,0.238
				c0.788-1.036,0.826-0.64,0-1.725C117.085,239.544,117.202,239.614,117.324,239.653z M117.724,241.473
				c0.18,0.876-0.061,1.722-0.488,0.385C115.351,242.114,117.57,240.727,117.724,241.473z M117.085,242.018
				c0.079-0.017,0.058,0.004,0.13,0.187c1.437,3.622-3.632,1.429-1.058-0.192C116.158,242.011,116.657,242.1,117.085,242.018z
				 M115.834,244.268c1.438-0.295,0.586,0.429,0.158,0.54c-0.722,0.188-0.526,0.435-0.748-0.622
				C115.224,244.096,115.364,242.708,115.834,244.268z M115.422,246.424c1.315,0.422,1.792,1.014,0.418,0.726
				C115.313,248.662,115.06,247.232,115.422,246.424z M115.934,247.317c1.395,0.134,0.443-0.36,1.656,0.43
				c0.056,1.101,0.17,0.592-0.455,1.655c-0.29-0.038-0.544-0.086-0.844,0.012c-0.107,0.035-0.107,0.012-0.812-0.446
				C115.445,248.3,115.261,248.197,115.934,247.317z M117.235,249.559c0.514-1.643,0.609-0.06,0.509,0.286
				c-0.157,0.543,0.15,0.527-0.887,0.193c-0.045-0.014-0.453-0.434-0.486-0.467C116.521,249.467,116.536,249.467,117.235,249.559z
				 M118.967,250.927c0.904-0.808,1.75-0.935,0.757,0.073C121.171,252.501,118.661,251.201,118.967,250.927z M119.915,251.012
				c0.823-1.144-0.092-0.564,1.206-1.226c0.698,0.355,0.774,0.367,0.788,0.449c0.072,0.433,0.396,0.698,0.413,0.776
				c-0.17,0.214-0.351,0.413-0.403,0.722c-0.023,0.139-0.079,0.094-0.708,0.451C120.73,252.458,120.027,251.134,119.915,251.012z
				 M122.514,250.999c-0.949-1.014-0.189-0.931,0.841,0.008C122.331,251.876,121.636,252.017,122.514,250.999z M124.59,250.292
				c-0.199-0.955-0.119-1.967,0.263-1.147c0.39,0.835,0.166,0.108,1.038,0.402C125.291,250.154,125.61,249.968,124.59,250.292z
				 M125.106,249.406c-0.106-0.267-0.186-0.508-0.427-0.726c-0.091-0.082-0.066-0.107-0.024-0.932
				c0.636-0.414,0.708-0.486,0.776-0.46c0.687,0.26,0.745-0.265,1.003,0.313c0.04,0.091,0.929,1.013,0.026,1.559
				C125.689,249.621,126.112,249.249,125.106,249.406z M126.408,247.152c-2.114,0.388,0.384-0.934,0.441-0.66
				C127.124,247.79,126.83,248.471,126.408,247.152z M126.912,244.582c-0.306,0.926-2.411-0.755-0.506-0.312
				C126.9,242.727,127.065,244.12,126.912,244.582z M124.595,239.706c-0.235-0.804-0.244-2.428,0.425-0.729
				C126.371,238.724,125.905,239.288,124.595,239.706z M126.126,236.02c-0.036-0.049,0.269-0.399,0.305-0.447
				c0.438-0.577,0.444-0.306-0.338-1.336c0.044,0.008,0.079,0.016,0.118,0.024c-0.578-0.23-1.043-0.794,0.167-0.585
				c0.19-0.377,0.409-0.946,0.622-0.14c0.019,0.071,0.023,0.126,0.032,0.187c0.004-0.011,0.007-0.02,0.011-0.032
				c0.519,1.229,0.154,1.059,1.5,0.89c-0.165,0.215-0.371,0.37-0.583,0.537c0.046,0.039,0.613,0.496,0.587,0.551
				c-1.352-0.171-0.987-0.341-1.502,0.888C126.701,235.667,127.288,235.606,126.126,236.02z M128.095,235.163
				c-0.156-0.139,2.165-1.735,0.811-0.036C129.813,236.152,129.11,236.068,128.095,235.163z M129.09,235.136
				c0.58-0.842,0.334-0.791,0.523-0.885c0.664-0.328,0.64-0.39,0.77-0.317c0.538,0.301,0.688,0.342,0.701,0.416
				c0.103,0.571,0.517,0.67,0.334,0.887c-0.345,0.409-0.394,1.389-1.619,0.845C129.284,235.853,129.673,235.783,129.09,235.136z
				 M131.233,234.367c0.558,0.156,0.444-0.007,0.444,0.735C131.487,234.899,131.301,234.685,131.233,234.367z M131.677,235.138
				c0,0.69,0.038,0.631-0.114,0.65C131.132,235.843,131.126,235.804,131.677,235.138z M130.889,239.38
				c-0.629-1.119-0.415-2.137,0.788-2.794C131.677,239.508,131.932,239.421,130.889,239.38z M131.677,233.663
				c-0.279-0.158-0.49-0.325-0.658-0.494C131.847,233.169,131.677,233.04,131.677,233.663z M131.677,233.921
				c0,1.012-1.103-0.427-1.531-0.149c-3.413,2.21-3.453-1.998-2.455,0.314c0.171,0.396,1.398-0.2,1.845-0.568
				C130.634,232.616,130.732,233.456,131.677,233.921z M127.675,233.169h1.901C129.096,233.657,127.818,234.619,127.675,233.169z
				 M129.77,229.124c-0.001-0.079-0.005-0.159-0.008-0.238C130.894,229.835,129.772,229.279,129.77,229.124z M127.574,229.391
				c-0.182-0.752,0.341-1.935,1.59-0.982C129.221,229.678,128.661,229.391,127.574,229.391z M127.336,229.09
				c0.004-1.236-1.664-1.655-1.741-1.485c-0.304,0.658-0.23,1.378,0.025,1.786c-0.895,0-0.924,0.048-0.554-0.13
				c0-1.713,0.467-2.458,2.153-1.413c0.376,0.235,0.449-0.499,1.077-0.066C127.636,228.111,127.405,228.745,127.336,229.09z
				 M127.36,227.307c0.106-0.114,0.018-0.136,0.525,0.197C127.022,228.66,125.775,225.63,127.36,227.307z M124.975,226.462
				c-0.905-0.289-1.216-0.674-0.283-0.497C124.822,225.564,125.344,225.77,124.975,226.462z M123.483,225.51
				c-0.042-0.748,0.002-0.304,0.586-0.153C125.674,226.13,123.502,225.863,123.483,225.51z M121.107,222.927
				c-2.492,0.298-2.382,1.793-3.036,0.367c3.078-1.413,2.982-1.415,6.075-0.008C123.529,224.643,123.408,223.201,121.107,222.927z
				 M118.672,225.12c-0.017,0.361,0.082,0.731-0.837,0.703C116.922,225.797,117.844,225.504,118.672,225.12z M117.16,226.463
				c-0.199-0.68-0.15-0.517,0.211-0.704c0.027,0.066,0.052,0.133,0.08,0.204C118.378,225.79,118.058,226.176,117.16,226.463z
				 M116.113,227.123c-0.24,0.267-0.434,0.27-0.693,0.342c0.112-0.529,0.439-0.32,0.153-0.707c0.105-0.063,0.21-0.125,0.314-0.185
				c0.004,0.003,0.009,0.005,0.013,0.008C116.45,227.066,116.323,226.889,116.113,227.123z M115.609,226.945
				c-0.119,0.153-0.243,0.285-0.284,0.51c-0.061,0.336-1.547,0.434-0.578-0.186C114.823,227.345,115.356,226.669,115.609,226.945z
				 M114.784,227.932c2.888-1.785,1.943,1.144,2.414,1.394c0.166,0.088,0.218,0.064-0.683,0.064
				c0.495-0.789,0.309-2.765-1.309-1.259c-0.266,0.247-0.398,0.737-0.451,1.027c0.038-0.612-0.285-1.037-0.832-1.339
				C114.425,227.469,114.379,227.792,114.784,227.932z M114.561,229.391c-1.388,0-1.374,0.113-1.509-0.341
				c-0.171-0.577-0.145-0.51,0.731-1.131C114.401,228.233,114.724,228.705,114.561,229.391z M114.387,233.911
				c-0.095,0.248-1.184-0.191-1.721-0.742C114.726,233.169,114.769,232.931,114.387,233.911z M112.357,229.181
				c-0.376,0.245-0.302,0.21-0.396,0.21C112.433,228.942,112.367,228.99,112.357,229.181z M113.651,234.057
				c1.671,0.588,0.492-0.888,1.518-0.888c-0.265,1.058-0.65,2.166-3.06,0.608c-0.444-0.288-1.474,1.156-1.474,0.106
				c0.276-0.145,0.531-0.331,0.765-0.564C112.071,232.648,112.694,233.718,113.651,234.057z M110.635,233.63
				c0-0.581-0.152-0.461,0.59-0.461C111.045,233.352,110.848,233.506,110.635,233.63z M111.816,236.485
				c0.563,0.53,3.475-3.103,3.475,2.01c2.207,1.174,2.674,2.415,0.195,3.737c-0.588,0.315,0.576,4.557-3.519,2.049
				c-0.139-0.085-1.332,1.094-1.332,0.188c1.927-1.007,1.576-3.578,0-3.166c0-0.572-0.069-0.092,0.379-0.877
				c-0.283-0.596-0.379-0.337-0.379-0.893c1.573,0.403,1.642-1.86,0.613-2.752C109.559,235.318,111.628,236.308,111.816,236.485z
				 M110.752,240.419c-0.038,0.062-0.077,0.121-0.118,0.179C110.635,240.173,110.596,240.147,110.752,240.419z M111.292,237.143
				c0.596,0.646,0.677,2.525-0.657,2.151C110.635,236.442,110.416,236.192,111.292,237.143z M111.351,241.446
				c0.613,1.079,0.443,2.094-0.716,2.768C110.635,241.267,110.397,241.431,111.351,241.446z M111.119,247.555
				c0.862,0.761,0.841,2.692-0.484,2.324C110.635,246.882,110.473,246.985,111.119,247.555z M115.832,254.851
				c1.997-0.324-0.331,1.276-0.575-0.02C115.219,254.628,115.385,253.318,115.832,254.851z M130.914,249.975
				c-0.623-0.833-0.53-2.1,0.763-2.805C131.677,250.149,131.926,249.964,130.914,249.975z M131.113,243.851
				c-0.813-0.727-0.881-2.738,0.564-2.293C131.677,244.569,131.866,244.526,131.113,243.851z M130.87,241.211
				c-0.302,0-1.4,2.213,0.807,3.292c0,1.048-1.084-0.425-1.557-0.125c-2.504,1.581-3.165,0.39-3.165-2.043
				c-2.027-0.978-2.841-2.468-0.001-3.836c0-2.464,0.697-3.647,3.202-2.016c0.295,0.191,0.323-0.236,1.52-0.547
				c0,0.705-2.428,1.45-0.913,3.677c1.05,0.059,0.913-0.351,0.913,0.165C130.486,241.078,132.933,241.205,130.87,241.211z
				 M131.493,240.416c0.057-0.098,0.119-0.189,0.184-0.276C131.677,240.778,131.736,240.831,131.493,240.416z M119.257,210.401
				c0-2.443,3.692-2.44,3.692,0C122.949,212.845,119.257,212.842,119.257,210.401z M120.46,218.634c0.258,0.548,1.033,0.551,1.293,0
				c1.533,0.302,2.693,1.656,2.693,3.276c0,1.959-1.06-0.282-3.34-0.282c-2.271,0-3.34,2.27-3.34,0.282
				C117.767,220.289,118.927,218.936,120.46,218.634z M114.507,225.18c3.506-2.121,2.96-1.658,3.421-1.011
				c-8.189,3.91-6.746,5.81-8.737,5.81C109.877,228.536,111.705,226.875,114.507,225.18z M133.427,250.136
				c-0.073,3.544-8.602,8.909-12.456,9.995c-2.385-0.62-12.006-6.263-12.087-9.992c0-19.034-0.327-17.125,0.734-17.125
				c0,18.81-1.6,18.156,5.204,22.918c3.021,2.115,5.771,3.38,6.381,3.502c0.607-0.122,3.336-1.387,6.33-3.5
				c6.632-4.681,5.159-3.672,5.159-22.92C133.727,233.014,133.427,230.525,133.427,250.136z"/>
			<path style="fill:#303445;" d="M115.196,254.846c0.063,0.174,0.043,0.135-0.032,0.082
				C115.175,254.901,115.185,254.874,115.196,254.846z"/>
			<path style="fill:#303445;" d="M116.114,255.399c0.023,0.053,0.03,0.02-0.063,0.141
				C115.905,255.443,115.896,255.477,116.114,255.399z"/>
			<path style="fill:#303445;" d="M127.018,254.887c0.052-0.003,0.029-0.019,0.082,0.107
				C126.944,255.106,126.974,255.129,127.018,254.887z"/>
			<polygon style="fill:#303445;" points="121.063,224.16 121.065,224.16 121.064,224.161 			"/>
			<path style="fill:#303445;" d="M118.569,251.926c-1.475,2.473,2.151,5.174,2.507,2.462
				C121.343,252.355,118.679,251.738,118.569,251.926z M120.843,254.408c-0.276,1.702-2,0.469-2.241-0.349
				C117.611,250.71,121.165,252.425,120.843,254.408z"/>
			<path style="fill:#303445;" d="M123.66,251.896c-3.356,0.214-2.53,3.589-1.957,3.595
				C123.795,255.517,124.506,253.465,123.66,251.896z M123.671,253.952c-0.284,1.271-2.644,2.19-2.272-0.16
				C121.587,252.595,124.371,250.829,123.671,253.952z"/>
			<path style="fill:#303445;" d="M122.935,236.136c1.445,0.962,3.481-0.736,3.192-1.127
				C124.258,232.478,120.649,234.614,122.935,236.136z M123.261,234.183c0.962-0.486,3.339,0.458,2.243,1.402
				C123.672,237.158,121.098,235.277,123.261,234.183z"/>
			<path style="fill:#303445;" d="M116.046,235.12c0.693,1.231,2.889,2.201,4.104,0.087
				C120.497,234.6,117.761,232.41,116.046,235.12z M117.986,234.045c0.817-0.177,1.527,0.363,1.945,1.079
				C118.363,237.717,114.282,234.847,117.986,234.045z"/>
			<path style="fill:#303445;" d="M123.684,239.478c1.477-2.403-2.152-5.186-2.515-2.452
				C120.902,239.027,123.549,239.702,123.684,239.478z M121.409,236.971c0.295-1.638,1.99-0.423,2.229,0.372
				C124.639,240.659,121.053,238.953,121.409,236.971z"/>
			<path style="fill:#303445;" d="M118.856,239.494c2.904-0.449,2.361-3.575,1.68-3.572
				C117.516,235.947,118.076,239.619,118.856,239.494z M120.416,236.155c0.464-0.025,1.191,2.573-1.495,3.106
				C118.358,239.373,117.837,236.3,120.416,236.155z"/>
			<path style="fill:#303445;" d="M128.496,250c-1.525-1.024-3.449,0.775-3.204,1.107C127.147,253.635,130.739,251.509,128.496,250z
				 M127.546,252.101c-0.579,0.046-2.907-0.686-1.398-1.736C128.481,248.744,130.23,251.884,127.546,252.101z"/>
			<path style="fill:#303445;" d="M127.737,246.648c-1.514,2.363,2.022,5.054,2.49,2.592
				C130.643,247.055,127.848,246.462,127.737,246.648z M130.004,249.187c-0.306,1.58-1.991,0.409-2.232-0.43
				C126.802,245.383,130.384,247.238,130.004,249.187z"/>
			<path style="fill:#303445;" d="M115.528,249.819c-1.352-0.511-3.833,0.882-1.728,2.218
				C115.357,253.026,118.723,251.027,115.528,249.819z M114.074,251.931c-2.224-1.143,0.762-3.265,2.61-1.021
				C116.927,251.199,115.262,252.542,114.074,251.931z"/>
			<path style="fill:#303445;" d="M112.573,247.433c-0.917,0.85-0.98,3.559,1.144,2.516
				C115.516,249.068,115.263,244.938,112.573,247.433z M112.543,249.971c-0.94-1.621,0.301-2.988,1.731-3.122
				C114.637,246.812,115.225,250.028,112.543,249.971z"/>
			<path style="fill:#303445;" d="M121.692,244.91c2.23,0.002,2.726-2.081,1.972-3.596
				C120.464,241.313,121.056,244.91,121.692,244.91z M121.404,243.176c0.155-0.866,2.43-2.863,2.354-0.464
				C123.693,244.766,120.967,245.626,121.404,243.176z"/>
			<path style="fill:#303445;" d="M119.26,244.605c2.107,1.152,2.205-1.507,1.297-2.409
				C117.928,239.584,117.528,243.658,119.26,244.605z M118.654,241.694c0.15-0.425,2.509,0.389,2.179,2.176
				C120.498,245.683,117.774,244.171,118.654,241.694z"/>
			<path style="fill:#303445;" d="M122.625,246.655c-1.874-0.653-1.72,1.786-0.94,2.565
				C124.421,251.95,124.825,247.421,122.625,246.655z M121.941,249.152c-0.734-0.654-0.69-1.693-0.221-2.394
				C124.32,246.426,124.685,251.6,121.941,249.152z"/>
			<path style="fill:#303445;" d="M120.555,246.511c-2.145-0.033-2.767,1.984-1.975,3.596
				C121.721,250.106,121.226,246.522,120.555,246.511z M120.86,248.102c-0.135,1.426-3.101,3.003-2.278-0.095
				C118.903,246.796,121.065,245.931,120.86,248.102z"/>
			<path style="fill:#303445;" d="M123.479,244.442c-2.603,0.788-0.761,2.789,0.69,2.586
				C127.635,246.548,125.401,243.86,123.479,244.442z M125.873,245.627c0.229,0.288-2.177,2.442-3.56,0.08
				C123.288,244.119,124.898,244.419,125.873,245.627z"/>
			<path style="fill:#303445;" d="M118.693,246.994c2.787-0.72,0.781-3.033-0.926-2.546
				C114.462,245.394,117.242,247.369,118.693,246.994z M117.243,246.513c-2.136-1.135,0.757-2.222,1.713-1.758
				C120.935,245.716,118.99,247.443,117.243,246.513z"/>
			<path style="fill:#303445;" d="M113.764,241.491c-2.218-1.147-2.053,1.644-1.245,2.441
				C115.166,246.548,115.518,242.396,113.764,241.491z M114.409,244.44c-0.144,0.39-2.468-0.432-2.181-2.156
				C112.539,240.42,115.319,241.952,114.409,244.44z"/>
			<path style="fill:#303445;" d="M113.887,239.271c1.577-0.94,1.245-5.034-1.406-2.331
				C111.587,237.852,111.736,240.555,113.887,239.271z M114.346,236.252c1.178,2.322-1.824,4.377-2.127,2.231
				C112.038,237.197,113.249,236.396,114.346,236.252z"/>
			<path style="fill:#303445;" d="M114.049,239.247c-2.412,1.111-0.145,3.065,1.686,2.262
				C118.532,240.282,115.365,238.64,114.049,239.247z M115.221,241.458c-0.873,0.241-1.624-0.261-2.08-1.043
				C114.628,237.91,118.603,240.523,115.221,241.458z"/>
			<path style="fill:#303445;" d="M127.907,236.033c-0.541-0.06-1.246,3.618,1.835,3.585
				C130.232,239.611,131.146,236.401,127.907,236.033z M130.012,238.565c-0.371,2.091-3.307-0.223-2.113-2.307
				C128.944,236.342,130.252,237.215,130.012,238.565z"/>
			<path style="fill:#303445;" d="M129.721,241.212c-2.108-0.012-2.796,2.021-1.964,3.593
				C130.825,244.804,130.452,241.215,129.721,241.212z M130.008,242.98c-0.173,0.856-2.424,2.806-2.347,0.426
				C127.733,241.248,130.498,240.561,130.008,242.98z"/>
			<path style="fill:#303445;" d="M127.939,241.679c2.721-0.826,0.61-3.268-1.416-2.365
				C123.628,240.608,126.948,241.98,127.939,241.679z M127.102,241.479c-2.308-0.575-1.575-1.786,0.056-2.134
				C129.368,238.873,129.682,242.122,127.102,241.479z"/>
			<path style="fill:#303445;" d="M130.786,245.712c-0.591-0.694-0.434-0.591-0.981-0.003
				C130.396,246.342,130.171,246.373,130.786,245.712z M129.99,245.706c0.353-0.379,0.257-0.41,0.614,0.008
				C130.24,246.104,130.36,246.11,129.99,245.706z"/>
			<path style="fill:#303445;" d="M111.453,245.71c0.592,0.629,0.369,0.661,0.987-0.002
				C111.847,245.077,112.074,245.044,111.453,245.71z M112.258,245.709c-0.374,0.402-0.23,0.42-0.621,0
				C112.007,245.308,111.867,245.288,112.258,245.709z"/>
			<path style="fill:#303445;" d="M111.457,235.118c0.597,0.695,0.431,0.598,0.983,0.004
				C111.848,234.491,112.073,234.463,111.457,235.118z M111.948,235.456c-0.375-0.403-0.392-0.249-0.002-0.664
				C112.339,235.205,112.322,235.053,111.948,235.456z"/>
			<path style="fill:#303445;" d="M130.791,235.12c-0.594-0.629-0.367-0.657-0.989,0.002
				C130.4,235.756,130.175,235.785,130.791,235.12z M129.986,235.123c0.374-0.397,0.232-0.416,0.623-0.001
				C130.231,235.525,130.378,235.54,129.986,235.123z"/>
			<path style="fill:#303445;" d="M116.989,248.093c-0.837-0.196-0.665-0.304-0.87,0.396c-0.049,0.166-0.106,0.116,0.664,0.295
				C116.854,248.547,116.919,248.329,116.989,248.093z M116.248,248.524c0.16-0.542,0.038-0.452,0.575-0.333
				C116.661,248.714,116.803,248.654,116.248,248.524z"/>
			<path style="fill:#303445;" d="M125.947,247.931c-0.872,0.205-0.734,0.024-0.485,0.853
				C126.223,248.609,126.268,248.789,125.947,247.931z M125.422,248.191c0.532-0.121,0.408-0.212,0.577,0.331
				C125.465,248.65,125.589,248.74,125.422,248.191z"/>
			<path style="fill:#303445;" d="M121.112,239.906c-0.56,0.594-0.545,0.449-0.235,0.775c0.307,0.326,0.167,0.341,0.735-0.266
				C121.105,239.877,121.225,239.998,121.112,239.906z M121.137,240.73c-0.466-0.296-0.264-0.376-0.014-0.642
				C121.491,240.482,121.504,240.333,121.137,240.73z"/>
			<path style="fill:#303445;" d="M116.085,253.381c0.215,0.836,0.069,0.723,0.907,0.529
				C116.737,253.08,116.96,253.176,116.085,253.381z M116.38,253.914c-0.16-0.52-0.248-0.407,0.308-0.537
				C116.858,253.92,116.911,253.787,116.38,253.914z"/>
			<path style="fill:#303445;" d="M126.109,253.58c0.076-0.251,0.142-0.179-0.636-0.359c-0.079,0.212-0.015,0.007-0.216,0.682
				C126.074,254.136,125.939,254.145,126.109,253.58z M125.422,253.812c0.159-0.523,0.017-0.462,0.577-0.331
				C125.837,254.001,125.979,253.938,125.422,253.812z"/>
			<path style="fill:#303445;" d="M125.96,237.352c-0.902,0.162-0.729,0.088-0.496,0.848
				C126.307,238,126.218,238.211,125.96,237.352z M125.42,237.606c0.535-0.124,0.411-0.213,0.577,0.33
				C125.443,238.067,125.584,238.128,125.42,237.606z"/>
			<path style="fill:#303445;" d="M116.991,237.508c-0.846-0.197-0.65-0.34-0.913,0.528
				C116.926,238.231,116.728,238.377,116.991,237.508z M116.381,237.503c0.5,0.116,0.488,0.02,0.303,0.531
				C116.182,237.924,116.209,238.051,116.381,237.503z"/>
			<path style="fill:#303445;" d="M116.286,243.487c0.847-0.194,0.76,0.017,0.493-0.855
				C115.933,242.832,116.026,242.618,116.286,243.487z M116.823,243.226c-0.531,0.125-0.407,0.212-0.573-0.313
				C116.758,242.672,116.71,242.861,116.823,243.226z"/>
			<path style="fill:#303445;" d="M125.255,243.324c0.843,0.196,0.646,0.342,0.91-0.527
				C125.318,242.599,125.515,242.456,125.255,243.324z M125.999,242.894c-0.162,0.524-0.02,0.46-0.577,0.334
				C125.588,242.681,125.463,242.773,125.999,242.894z"/>
			<path style="fill:#303445;" d="M121.117,250.484c-0.581,0.625-0.611,0.385,0.006,1.042
				C121.718,250.885,121.727,251.096,121.117,250.484z M120.815,251.002c0.368-0.394,0.228-0.414,0.614,0
				C121.061,251.394,121.202,251.413,120.815,251.002z"/>
			<path style="fill:#303445;" d="M123.834,227.616c1.785-1.002-0.638-1.67-1.116-1.54
				C120.798,226.599,122.285,228.485,123.834,227.616z M122.474,227.558c-1.392-0.799,0.548-2.116,1.785-0.74
				C124.536,227.126,123.318,228.043,122.474,227.558z"/>
			<path style="fill:#303445;" d="M119.763,226.219c-1.076-0.644-2.232,0.654-2.152,0.767
				C118.932,228.851,121.465,227.236,119.763,226.219z M120.053,227.229c-0.707,0.819-1.776,0.453-2.277-0.283
				C118.879,225.455,120.614,226.581,120.053,227.229z"/>
			<path style="fill:#303445;" d="M118.237,228.582c-0.581-0.136-0.446-0.233-0.624,0.361
				C118.191,229.078,118.055,229.178,118.237,228.582z M117.727,228.877c0.114-0.374,0.028-0.312,0.396-0.229
				C118.011,229.007,118.109,228.964,117.727,228.877z"/>
			<path style="fill:#303445;" d="M123.907,228.59c0.152,0.562,0.039,0.49,0.621,0.352
				C124.383,228.473,124.478,228.376,123.907,228.59z M124.107,228.943c-0.115-0.368-0.151-0.278,0.213-0.365
				C124.427,228.926,124.474,228.867,124.107,228.943z"/>
		</g>
		<g>
			<polygon style="fill:#303445;" points="104.086,201.467 105.731,205.676 110.243,205.94 106.748,208.806 107.891,213.178 
				104.086,210.74 100.281,213.178 101.424,208.806 97.929,205.94 102.441,205.676 			"/>
			<g>
				<g>
					<path style="fill:#303445;" d="M104.086,200.207c-0.119,0-0.232-0.048-0.315-0.131c-0.083-0.083-0.131-0.196-0.131-0.315
						c0-0.119,0.048-0.232,0.131-0.316c0.041-0.042,0.089-0.072,0.143-0.095c0.167-0.066,0.363-0.03,0.488,0.095
						c0.083,0.083,0.131,0.196,0.131,0.316c0,0.119-0.048,0.232-0.131,0.315C104.318,200.16,104.205,200.207,104.086,200.207z"/>
				</g>
				<g>
					<path style="fill:#303445;" d="M103.639,196.827c0-0.244,0.203-0.446,0.446-0.446l0,0c0.25,0,0.446,0.202,0.446,0.446l0,0
						c0,0.25-0.196,0.446-0.446,0.446l0,0C103.842,197.273,103.639,197.077,103.639,196.827z M103.639,193.893
						c0-0.244,0.203-0.446,0.446-0.446l0,0c0.25,0,0.446,0.203,0.446,0.446l0,0c0,0.25-0.196,0.446-0.446,0.446l0,0
						C103.842,194.339,103.639,194.143,103.639,193.893z M103.639,190.96c0-0.244,0.203-0.446,0.446-0.446l0,0
						c0.25,0,0.446,0.202,0.446,0.446l0,0c0,0.244-0.196,0.446-0.446,0.446l0,0C103.842,191.406,103.639,191.203,103.639,190.96z
						 M103.639,188.026c0-0.244,0.203-0.446,0.446-0.446l0,0c0.25,0,0.446,0.202,0.446,0.446l0,0c0,0.25-0.196,0.446-0.446,0.446
						l0,0C103.842,188.472,103.639,188.275,103.639,188.026z M103.639,185.092c0-0.244,0.203-0.446,0.446-0.446l0,0
						c0.25,0,0.446,0.203,0.446,0.446l0,0c0,0.244-0.196,0.446-0.446,0.446l0,0C103.842,185.538,103.639,185.336,103.639,185.092z
						 M103.639,182.158c0-0.25,0.203-0.446,0.446-0.446l0,0c0.25,0,0.446,0.196,0.446,0.446l0,0c0,0.244-0.196,0.446-0.446,0.446
						l0,0C103.842,182.605,103.639,182.402,103.639,182.158z M103.639,179.224c0-0.25,0.203-0.446,0.446-0.446l0,0
						c0.25,0,0.446,0.196,0.446,0.446l0,0c0,0.244-0.196,0.446-0.446,0.446l0,0C103.842,179.671,103.639,179.468,103.639,179.224z
						 M103.639,176.291c0-0.244,0.203-0.446,0.446-0.446l0,0c0.25,0,0.446,0.202,0.446,0.446l0,0c0,0.244-0.196,0.446-0.446,0.446
						l0,0C103.842,176.737,103.639,176.535,103.639,176.291z M103.639,173.357c0-0.25,0.203-0.446,0.446-0.446l0,0
						c0.25,0,0.446,0.196,0.446,0.446l0,0c0,0.244-0.196,0.446-0.446,0.446l0,0C103.842,173.803,103.639,173.601,103.639,173.357z
						 M103.639,170.423c0-0.25,0.203-0.446,0.446-0.446l0,0c0.25,0,0.446,0.196,0.446,0.446l0,0c0,0.244-0.196,0.446-0.446,0.446
						l0,0C103.842,170.869,103.639,170.667,103.639,170.423z"/>
				</g>
			</g>
		</g>
		<g>
			<polygon style="fill:#303445;" points="69.171,161.561 70.413,164.739 73.82,164.939 71.181,167.102 72.044,170.404 
				69.171,168.563 66.298,170.404 67.161,167.102 64.522,164.939 67.928,164.739 			"/>
			<g>
				<g>
					<path style="fill:#303445;" d="M69.171,160.61c-0.09,0-0.175-0.036-0.238-0.099c-0.063-0.063-0.099-0.148-0.099-0.238
						c0-0.09,0.036-0.175,0.099-0.238c0.031-0.031,0.067-0.054,0.108-0.072c0.126-0.05,0.274-0.023,0.369,0.072
						c0.063,0.063,0.099,0.148,0.099,0.238c0,0.09-0.036,0.175-0.099,0.238C69.346,160.574,69.26,160.61,69.171,160.61z"/>
				</g>
				<g>
					<path style="fill:#303445;" d="M68.834,158.057c0-0.184,0.153-0.337,0.337-0.337l0,0c0.189,0,0.337,0.153,0.337,0.337l0,0
						c0,0.189-0.148,0.337-0.337,0.337l0,0C68.986,158.395,68.834,158.246,68.834,158.057z M68.834,155.842
						c0-0.184,0.153-0.337,0.337-0.337l0,0c0.189,0,0.337,0.153,0.337,0.337l0,0c0,0.189-0.148,0.337-0.337,0.337l0,0
						C68.986,156.179,68.834,156.031,68.834,155.842z M68.834,153.627c0-0.184,0.153-0.337,0.337-0.337l0,0
						c0.189,0,0.337,0.153,0.337,0.337l0,0c0,0.184-0.148,0.337-0.337,0.337l0,0C68.986,153.964,68.834,153.811,68.834,153.627z
						 M68.834,151.412c0-0.184,0.153-0.337,0.337-0.337l0,0c0.189,0,0.337,0.153,0.337,0.337l0,0c0,0.189-0.148,0.337-0.337,0.337
						l0,0C68.986,151.749,68.834,151.601,68.834,151.412z M68.834,149.197c0-0.184,0.153-0.337,0.337-0.337l0,0
						c0.189,0,0.337,0.153,0.337,0.337l0,0c0,0.184-0.148,0.337-0.337,0.337l0,0C68.986,149.534,68.834,149.381,68.834,149.197z
						 M68.834,146.982c0-0.189,0.153-0.337,0.337-0.337l0,0c0.189,0,0.337,0.148,0.337,0.337l0,0c0,0.184-0.148,0.337-0.337,0.337
						l0,0C68.986,147.319,68.834,147.166,68.834,146.982z M68.834,144.766c0-0.189,0.153-0.337,0.337-0.337l0,0
						c0.189,0,0.337,0.148,0.337,0.337l0,0c0,0.184-0.148,0.337-0.337,0.337l0,0C68.986,145.103,68.834,144.951,68.834,144.766z
						 M68.834,142.551c0-0.184,0.153-0.337,0.337-0.337l0,0c0.189,0,0.337,0.153,0.337,0.337l0,0c0,0.184-0.148,0.337-0.337,0.337
						l0,0C68.986,142.888,68.834,142.735,68.834,142.551z M68.834,140.336c0-0.189,0.153-0.337,0.337-0.337l0,0
						c0.189,0,0.337,0.148,0.337,0.337l0,0c0,0.184-0.148,0.337-0.337,0.337l0,0C68.986,140.673,68.834,140.52,68.834,140.336z
						 M68.834,138.121c0-0.189,0.153-0.337,0.337-0.337l0,0c0.189,0,0.337,0.148,0.337,0.337l0,0c0,0.184-0.148,0.337-0.337,0.337
						l0,0C68.986,138.458,68.834,138.305,68.834,138.121z M68.834,135.906c0-0.189,0.153-0.337,0.337-0.337l0,0
						c0.189,0,0.337,0.148,0.337,0.337l0,0c0,0.184-0.148,0.337-0.337,0.337l0,0C68.986,136.243,68.834,136.09,68.834,135.906z
						 M68.834,133.69c0-0.189,0.153-0.337,0.337-0.337l0,0c0.189,0,0.337,0.148,0.337,0.337l0,0c0,0.184-0.148,0.337-0.337,0.337
						l0,0C68.986,134.027,68.834,133.875,68.834,133.69z M68.834,131.475c0-0.189,0.153-0.337,0.337-0.337l0,0
						c0.189,0,0.337,0.148,0.337,0.337l0,0c0,0.184-0.148,0.337-0.337,0.337l0,0C68.986,131.812,68.834,131.66,68.834,131.475z
						 M68.834,129.26c0-0.189,0.153-0.337,0.337-0.337l0,0c0.189,0,0.337,0.148,0.337,0.337l0,0c0,0.184-0.148,0.337-0.337,0.337
						l0,0C68.986,129.597,68.834,129.444,68.834,129.26z M68.834,127.045c0-0.189,0.153-0.337,0.337-0.337l0,0
						c0.189,0,0.337,0.148,0.337,0.337l0,0c0,0.184-0.148,0.337-0.337,0.337l0,0C68.986,127.382,68.834,127.229,68.834,127.045z
						 M68.834,124.83c0-0.189,0.153-0.337,0.337-0.337l0,0c0.189,0,0.337,0.148,0.337,0.337l0,0c0,0.184-0.148,0.337-0.337,0.337
						l0,0C68.986,125.167,68.834,125.014,68.834,124.83z M68.834,122.615c0-0.189,0.153-0.337,0.337-0.337l0,0
						c0.189,0,0.337,0.148,0.337,0.337l0,0c0,0.184-0.148,0.337-0.337,0.337l0,0C68.986,122.951,68.834,122.799,68.834,122.615z
						 M68.834,120.399c0-0.189,0.153-0.337,0.337-0.337l0,0c0.189,0,0.337,0.148,0.337,0.337l0,0c0,0.184-0.148,0.337-0.337,0.337
						l0,0C68.986,120.736,68.834,120.584,68.834,120.399z M68.834,118.184c0-0.189,0.153-0.337,0.337-0.337l0,0
						c0.189,0,0.337,0.148,0.337,0.337l0,0c0,0.184-0.148,0.337-0.337,0.337l0,0C68.986,118.521,68.834,118.368,68.834,118.184z
						 M68.834,115.969c0-0.189,0.153-0.337,0.337-0.337l0,0c0.189,0,0.337,0.148,0.337,0.337l0,0c0,0.184-0.148,0.337-0.337,0.337
						l0,0C68.986,116.306,68.834,116.153,68.834,115.969z M68.834,113.754c0-0.189,0.153-0.337,0.337-0.337l0,0
						c0.189,0,0.337,0.148,0.337,0.337l0,0c0,0.184-0.148,0.337-0.337,0.337l0,0C68.986,114.091,68.834,113.938,68.834,113.754z
						 M68.834,111.539c0-0.189,0.153-0.337,0.337-0.337l0,0c0.189,0,0.337,0.148,0.337,0.337l0,0c0,0.184-0.148,0.337-0.337,0.337
						l0,0C68.986,111.876,68.834,111.723,68.834,111.539z"/>
				</g>
			</g>
		</g>
		<g>
			<polygon style="fill:#303445;" points="156.606,196.872 157.849,200.05 161.255,200.249 158.616,202.413 159.48,205.715 
				156.606,203.874 153.733,205.715 154.596,202.413 151.957,200.249 155.364,200.05 			"/>
			<g>
				<g>
					<path style="fill:#303445;" d="M156.606,195.921c-0.09,0-0.175-0.036-0.238-0.099c-0.063-0.063-0.099-0.148-0.099-0.238
						c0-0.09,0.036-0.175,0.099-0.238c0.031-0.031,0.067-0.054,0.108-0.072c0.126-0.05,0.274-0.023,0.369,0.072
						c0.063,0.063,0.099,0.148,0.099,0.238c0,0.09-0.036,0.175-0.099,0.238C156.781,195.885,156.696,195.921,156.606,195.921z"/>
				</g>
				<g>
					<path style="fill:#303445;" d="M156.269,193.368c0-0.184,0.153-0.337,0.337-0.337l0,0c0.189,0,0.337,0.153,0.337,0.337l0,0
						c0,0.189-0.148,0.337-0.337,0.337l0,0C156.422,193.705,156.269,193.557,156.269,193.368z M156.269,191.153
						c0-0.184,0.153-0.337,0.337-0.337l0,0c0.189,0,0.337,0.153,0.337,0.337l0,0c0,0.189-0.148,0.337-0.337,0.337l0,0
						C156.422,191.49,156.269,191.342,156.269,191.153z M156.269,188.938c0-0.184,0.153-0.337,0.337-0.337l0,0
						c0.189,0,0.337,0.153,0.337,0.337l0,0c0,0.184-0.148,0.337-0.337,0.337l0,0C156.422,189.275,156.269,189.122,156.269,188.938z
						 M156.269,186.723c0-0.184,0.153-0.337,0.337-0.337l0,0c0.189,0,0.337,0.153,0.337,0.337l0,0c0,0.189-0.148,0.337-0.337,0.337
						l0,0C156.422,187.06,156.269,186.911,156.269,186.723z M156.269,184.507c0-0.184,0.153-0.337,0.337-0.337l0,0
						c0.189,0,0.337,0.153,0.337,0.337l0,0c0,0.184-0.148,0.337-0.337,0.337l0,0C156.422,184.844,156.269,184.692,156.269,184.507z"
						/>
				</g>
			</g>
		</g>
		<g>
			<polygon style="fill:#303445;" points="139.902,210.728 141.294,214.291 145.113,214.514 142.155,216.939 143.122,220.64 
				139.902,218.576 136.682,220.64 137.649,216.939 134.691,214.514 138.51,214.291 			"/>
			<g>
				<g>
					<path style="fill:#303445;" d="M139.902,209.662c-0.101,0-0.196-0.04-0.267-0.111c-0.071-0.07-0.111-0.166-0.111-0.267
						c0-0.101,0.04-0.197,0.111-0.267c0.035-0.035,0.076-0.061,0.121-0.081c0.141-0.055,0.307-0.025,0.413,0.081
						c0.07,0.07,0.111,0.166,0.111,0.267c0,0.101-0.04,0.196-0.111,0.267C140.098,209.622,140.002,209.662,139.902,209.662z"/>
				</g>
				<g>
					<path style="fill:#303445;" d="M139.524,206.801c0-0.207,0.171-0.378,0.378-0.378l0,0c0.212,0,0.378,0.171,0.378,0.378l0,0
						c0,0.212-0.166,0.378-0.378,0.378l0,0C139.695,207.179,139.524,207.013,139.524,206.801z M139.524,204.318
						c0-0.206,0.171-0.378,0.378-0.378l0,0c0.212,0,0.378,0.171,0.378,0.378l0,0c0,0.212-0.166,0.378-0.378,0.378l0,0
						C139.695,204.696,139.524,204.53,139.524,204.318z M139.524,201.835c0-0.207,0.171-0.378,0.378-0.378l0,0
						c0.212,0,0.378,0.171,0.378,0.378l0,0c0,0.206-0.166,0.378-0.378,0.378l0,0C139.695,202.213,139.524,202.042,139.524,201.835z
						 M139.524,199.352c0-0.206,0.171-0.378,0.378-0.378l0,0c0.212,0,0.378,0.171,0.378,0.378l0,0c0,0.212-0.166,0.378-0.378,0.378
						l0,0C139.695,199.73,139.524,199.564,139.524,199.352z M139.524,196.869c0-0.206,0.171-0.378,0.378-0.378l0,0
						c0.212,0,0.378,0.171,0.378,0.378l0,0c0,0.207-0.166,0.378-0.378,0.378l0,0C139.695,197.247,139.524,197.076,139.524,196.869z
						 M139.524,194.387c0-0.212,0.171-0.378,0.378-0.378l0,0c0.212,0,0.378,0.166,0.378,0.378l0,0c0,0.207-0.166,0.378-0.378,0.378
						l0,0C139.695,194.764,139.524,194.593,139.524,194.387z M139.524,191.904c0-0.212,0.171-0.378,0.378-0.378l0,0
						c0.212,0,0.378,0.166,0.378,0.378l0,0c0,0.207-0.166,0.378-0.378,0.378l0,0C139.695,192.281,139.524,192.11,139.524,191.904z
						 M139.524,189.421c0-0.207,0.171-0.378,0.378-0.378l0,0c0.212,0,0.378,0.171,0.378,0.378l0,0c0,0.206-0.166,0.378-0.378,0.378
						l0,0C139.695,189.798,139.524,189.627,139.524,189.421z M139.524,186.938c0-0.212,0.171-0.378,0.378-0.378l0,0
						c0.212,0,0.378,0.166,0.378,0.378l0,0c0,0.206-0.166,0.378-0.378,0.378l0,0C139.695,187.316,139.524,187.144,139.524,186.938z
						 M139.524,184.455c0-0.212,0.171-0.378,0.378-0.378l0,0c0.212,0,0.378,0.166,0.378,0.378l0,0c0,0.207-0.166,0.378-0.378,0.378
						l0,0C139.695,184.832,139.524,184.661,139.524,184.455z"/>
				</g>
			</g>
		</g>
	</g>
	<g>
		<path style="fill:#303445;" d="M192.338,153.248v-15.199h0.006c0-1.196-0.282-2.284-0.737-3.161v-10.934h0.005
			c0-0.82-0.165-1.581-0.443-2.221v-10.391h0.004c0-1.574-0.711-2.886-1.676-3.295c0.024-0.093,0.046-0.188,0.046-0.292
			c0-0.385-0.181-0.714-0.44-0.86l-0.082-2.483c0.148-0.1,0.253-0.293,0.253-0.524c0-0.249-0.119-0.462-0.289-0.552l-0.179-5.418
			l-0.179,5.418c-0.169,0.09-0.288,0.303-0.288,0.552c0,0.23,0.104,0.424,0.253,0.524l-0.082,2.483
			c-0.258,0.146-0.439,0.475-0.439,0.86c0,0.123,0.021,0.239,0.055,0.347c-0.903,0.465-1.556,1.732-1.556,3.24h0.004v10.393
			c-0.278,0.64-0.443,1.4-0.443,2.22h0.004v10.936c-0.455,0.877-0.736,1.965-0.736,3.16h0.005v15.2
			c-0.133,0.272-0.253,0.558-0.357,0.86c-2.723-4.197-9.658-7.361-11.875-9.958c0.042-0.135,0.069-0.283,0.069-0.443
			c0-0.423-0.162-0.784-0.394-0.944l-0.093-3.929c0.2-0.111,0.345-0.403,0.345-0.755c0-0.372-0.163-0.672-0.381-0.767l-0.081-3.45
			c0.161-0.042,0.286-0.252,0.286-0.517c0-0.294-0.152-0.533-0.34-0.533c-0.188,0-0.339,0.239-0.339,0.533
			c0,0.267,0.127,0.478,0.289,0.518l-0.082,3.448c-0.219,0.094-0.382,0.394-0.382,0.767c0,0.353,0.146,0.645,0.346,0.755
			l-0.094,3.928c-0.232,0.159-0.395,0.521-0.395,0.945c0,0.19,0.041,0.358,0.098,0.51c-1.664,1.888-5.762,4.076-8.905,6.741v-10.623
			h-1.33v-3.054h-0.038c-0.303-10.124-9.159-10.062-11.257-11.236c-1.018-0.571-1.668-1.57-2.069-2.458
			c0.159-0.144,0.259-0.353,0.259-0.586c0-0.327-0.197-0.609-0.478-0.732c0,0,0,0,0,0l-0.112-3.034
			c0.242-0.086,0.418-0.311,0.418-0.583c0-0.287-0.198-0.519-0.462-0.592l-0.108-2.921l-0.107,0.023l-0.109,2.898
			c-0.266,0.072-0.465,0.305-0.465,0.593c0,0.272,0.177,0.498,0.421,0.584l-0.114,3.034l0,0c-0.282,0.123-0.48,0.405-0.48,0.732
			c0,0.206,0.077,0.391,0.206,0.532c-0.396,0.902-1.049,1.93-2.091,2.513c-2.134,1.195-11.265,1.109-11.265,11.778h0.031v2.513
			h-1.361v10.99c-3.236-3.209-8.333-5.76-10.175-7.918c0.042-0.136,0.07-0.283,0.07-0.444c0-0.423-0.163-0.784-0.394-0.944
			l-0.093-3.929c0.2-0.111,0.345-0.403,0.345-0.754c0-0.372-0.163-0.672-0.38-0.767l-0.082-3.45
			c0.161-0.041,0.286-0.252,0.286-0.517c0-0.294-0.152-0.533-0.339-0.533c-0.188,0-0.34,0.239-0.34,0.533
			c0,0.267,0.127,0.478,0.289,0.518l-0.082,3.449c-0.219,0.093-0.383,0.394-0.383,0.767c0,0.353,0.146,0.645,0.347,0.755
			l-0.094,3.928c-0.232,0.159-0.395,0.521-0.395,0.944c0,0.19,0.041,0.358,0.098,0.51c-1.922,2.18-7.087,4.762-10.279,8.015v-13.441
			h0.006c0-1.196-0.282-2.284-0.736-3.161v-10.934h0.005c0-0.82-0.165-1.581-0.443-2.221v-10.391h0.004
			c0-1.574-0.711-2.886-1.676-3.295c0.024-0.093,0.046-0.188,0.046-0.292c0-0.385-0.182-0.714-0.44-0.86l-0.082-2.483
			c0.148-0.1,0.253-0.294,0.253-0.524c0-0.249-0.119-0.462-0.289-0.552l-0.179-5.418l-0.179,5.418
			c-0.169,0.09-0.288,0.303-0.288,0.552c0,0.23,0.104,0.423,0.253,0.524l-0.082,2.483c-0.258,0.146-0.44,0.475-0.44,0.86
			c0,0.123,0.021,0.239,0.055,0.347c-0.903,0.465-1.557,1.732-1.557,3.24h0.004v10.392c-0.278,0.641-0.443,1.4-0.443,2.22h0.004
			v10.936c-0.454,0.878-0.736,1.965-0.736,3.16h0.005v15.2c-0.522,1.064-0.835,2.373-0.835,3.794h0.007v5.233h-2.505v9.414
			c3.843,1.368,7.066,3.922,9.369,7.207h71.901c1.69-2.546,3.955-4.701,6.553-6.365c1.337-0.856,2.676-1.704,4.036-2.514v-5.163
			h0.563v-7.812h0.008C193.174,155.622,192.861,154.313,192.338,153.248z"/>
		<path style="fill:#303445;" d="M204.175,157.545c-30.102,27.507-76.802,25.405-104.312-4.696
			c-27.507-30.103-25.405-76.804,4.696-104.313c8.673-7.924,18.726-13.387,29.301-16.434c-14.883,2.327-29.263,8.9-41.212,19.82
			C60.29,81.494,58.029,131.697,87.6,164.056c29.574,32.358,79.774,34.618,112.135,5.048c11.949-10.918,19.788-24.653,23.438-39.262
			C219.191,140.099,212.848,149.62,204.175,157.545z"/>
	</g>
	<g>
		<g>
			<path style="fill:#303445;" d="M176.034,221.787h-2.784v-4.357c0-2.682-1.229-4.022-3.686-4.022
				c-0.258,0-0.482,0.009-0.671,0.025v-0.645c0.963,0,1.865-0.266,2.707-0.799c0.447-0.292,0.809-0.734,1.083-1.328
				c0.275-0.593,0.413-1.302,0.413-2.127c0-1.306-0.34-2.247-1.019-2.823c-0.68-0.576-1.74-0.863-3.184-0.863h-1.418v16.939h-2.784
				v-17.79h5.027c4.022,0,6.033,1.53,6.033,4.589c0,2.131-1.384,3.618-4.151,4.46c2.956,0.602,4.435,2.355,4.435,5.26V221.787z"/>
			<path style="fill:#303445;" d="M187.276,220.756c0.378,0,0.653-0.275,0.825-0.825l0.49,0.078c0,0.138-0.048,0.348-0.142,0.631
				c-0.095,0.284-0.207,0.516-0.336,0.696c-0.129,0.181-0.331,0.344-0.605,0.49c-0.275,0.146-0.584,0.219-0.928,0.219
				c-1.204,0-1.892-0.636-2.063-1.908c-0.499,1.272-1.358,1.908-2.578,1.908c-1.032,0-1.853-0.37-2.463-1.108
				c-0.61-0.739-0.915-1.736-0.915-2.991v-4.46c0-1.237,0.305-2.226,0.915-2.965c0.61-0.739,1.474-1.109,2.592-1.109
				c1.116,0,1.916,0.585,2.397,1.753v-1.496h2.243v10.21C186.709,220.464,186.898,220.756,187.276,220.756z M184.466,218.255v-5.079
				c0-0.79-0.189-1.486-0.567-2.088c-0.378-0.601-0.902-0.902-1.572-0.902c-1.015,0-1.521,0.808-1.521,2.424v6.213
				c0,1.599,0.498,2.397,1.495,2.397c0.705,0,1.241-0.288,1.611-0.863C184.281,219.781,184.466,219.08,184.466,218.255z"/>
			<path style="fill:#303445;" d="M204.291,219.88c0,0.585,0.181,0.876,0.541,0.876c0.361,0,0.645-0.275,0.852-0.825l0.489,0.078
				c0,0.155-0.052,0.37-0.154,0.644c-0.104,0.275-0.22,0.503-0.349,0.683c-0.129,0.181-0.326,0.344-0.593,0.49
				c-0.267,0.146-0.571,0.219-0.915,0.219c-1.409,0-2.114-0.851-2.114-2.552v-6.884c0-1.616-0.507-2.424-1.521-2.424
				c-0.671,0-1.19,0.301-1.561,0.902c-0.369,0.602-0.554,1.298-0.554,2.088v8.611h-2.27v-9.178c0-1.616-0.507-2.424-1.521-2.424
				c-0.671,0-1.195,0.301-1.573,0.902c-0.378,0.602-0.567,1.298-0.567,2.088v8.611h-2.217v-12.118h2.217v1.496
				c0.499-1.169,1.35-1.753,2.553-1.753c0.773,0,1.431,0.215,1.973,0.645c0.541,0.43,0.924,1.031,1.148,1.805
				c0.188-0.756,0.52-1.354,0.992-1.792c0.473-0.438,1.07-0.658,1.792-0.658c1.031,0,1.848,0.366,2.449,1.096
				c0.602,0.731,0.902,1.724,0.902,2.978V219.88z"/>
			<path style="fill:#303445;" d="M216.305,220.756c0.378,0,0.653-0.275,0.825-0.825l0.49,0.078c0,0.138-0.048,0.348-0.142,0.631
				c-0.095,0.284-0.207,0.516-0.336,0.696c-0.129,0.181-0.331,0.344-0.606,0.49c-0.275,0.146-0.584,0.219-0.928,0.219
				c-1.204,0-1.892-0.636-2.063-1.908c-0.499,1.272-1.358,1.908-2.578,1.908c-1.032,0-1.853-0.37-2.463-1.108
				c-0.61-0.739-0.915-1.736-0.915-2.991v-4.46c0-1.237,0.305-2.226,0.915-2.965c0.61-0.739,1.474-1.109,2.592-1.109
				c1.116,0,1.916,0.585,2.397,1.753v-1.496h2.243v10.21C215.738,220.464,215.927,220.756,216.305,220.756z M213.495,218.255v-5.079
				c0-0.79-0.189-1.486-0.567-2.088c-0.378-0.601-0.902-0.902-1.572-0.902c-1.015,0-1.521,0.808-1.521,2.424v6.213
				c0,1.599,0.498,2.397,1.495,2.397c0.705,0,1.241-0.288,1.611-0.863C213.31,219.781,213.495,219.08,213.495,218.255z"/>
			<path style="fill:#303445;" d="M227.186,221.787h-2.243v-1.547c-0.481,1.203-1.281,1.805-2.397,1.805
				c-1.118,0-1.981-0.37-2.592-1.108c-0.61-0.739-0.915-1.736-0.915-2.991v-4.46c0-1.237,0.305-2.226,0.915-2.965
				c0.61-0.739,1.474-1.109,2.592-1.109c1.116,0,1.916,0.585,2.397,1.753v-7.167h2.243V221.787z M224.943,218.255v-5.079
				c0-0.79-0.189-1.486-0.567-2.088c-0.378-0.601-0.902-0.902-1.572-0.902c-1.015,0-1.521,0.808-1.521,2.424v6.213
				c0,1.599,0.498,2.397,1.495,2.397c0.705,0,1.241-0.283,1.611-0.851C224.757,219.802,224.943,219.097,224.943,218.255z"/>
			<path style="fill:#303445;" d="M238.735,220.756c0.378,0,0.653-0.275,0.825-0.825l0.49,0.078c0,0.138-0.048,0.348-0.142,0.631
				c-0.095,0.284-0.207,0.516-0.336,0.696c-0.129,0.181-0.331,0.344-0.605,0.49c-0.275,0.146-0.584,0.219-0.928,0.219
				c-1.204,0-1.892-0.636-2.063-1.908c-0.499,1.272-1.358,1.908-2.578,1.908c-1.032,0-1.853-0.37-2.463-1.108
				c-0.61-0.739-0.915-1.736-0.915-2.991v-4.46c0-1.237,0.305-2.226,0.915-2.965c0.61-0.739,1.474-1.109,2.592-1.109
				c1.116,0,1.916,0.585,2.398,1.753v-1.496h2.243v10.21C238.168,220.464,238.357,220.756,238.735,220.756z M235.925,218.255v-5.079
				c0-0.79-0.189-1.486-0.567-2.088c-0.378-0.601-0.902-0.902-1.572-0.902c-1.015,0-1.521,0.808-1.521,2.424v6.213
				c0,1.599,0.498,2.397,1.495,2.397c0.705,0,1.241-0.288,1.611-0.863C235.74,219.781,235.925,219.08,235.925,218.255z"/>
			<path style="fill:#303445;" d="M250.44,220.756c0.327,0,0.594-0.275,0.8-0.825l0.49,0.078c0,0.138-0.048,0.348-0.143,0.631
				c-0.095,0.284-0.206,0.516-0.335,0.696c-0.129,0.181-0.326,0.344-0.593,0.49c-0.267,0.146-0.571,0.219-0.915,0.219
				c-1.427,0-2.141-0.851-2.141-2.552v-6.884c0-1.616-0.507-2.424-1.52-2.424c-0.671,0-1.195,0.301-1.573,0.902
				c-0.378,0.602-0.567,1.298-0.567,2.088v8.611h-2.217v-12.118h2.217v1.496c0.499-1.169,1.307-1.753,2.424-1.753
				c1.117,0,1.977,0.366,2.578,1.096c0.602,0.731,0.902,1.724,0.902,2.978v6.394C249.847,220.464,250.044,220.756,250.44,220.756z"
				/>
		</g>
		<g>
			<path style="fill:#303445;" d="M180.77,241.785h-2.604v-3.48c0-1.048-0.048-1.912-0.142-2.591
				c-0.095-0.679-0.279-1.302-0.555-1.869c-0.55-1.066-1.685-1.598-3.403-1.598h-0.258v9.539h-2.784v-17.79h2.784v7.271
				c1.117,0,2.032-0.382,2.746-1.147c0.713-0.765,1.07-1.732,1.07-2.9v-3.223h2.81v1.367c0,1.34-0.326,2.552-0.98,3.635
				c-0.653,1.083-1.538,1.899-2.655,2.449c1.306,0.309,2.234,0.937,2.784,1.882c0.584,0.98,0.919,1.856,1.006,2.63
				c0.12,1.066,0.181,2.054,0.181,2.965V241.785z"/>
			<path style="fill:#303445;" d="M192.061,240.753c0.378,0,0.653-0.275,0.825-0.825l0.49,0.078c0,0.138-0.048,0.348-0.142,0.631
				c-0.095,0.284-0.207,0.516-0.336,0.696c-0.129,0.181-0.331,0.344-0.605,0.49c-0.275,0.146-0.584,0.219-0.928,0.219
				c-1.204,0-1.892-0.636-2.063-1.908c-0.499,1.272-1.358,1.908-2.578,1.908c-1.032,0-1.852-0.37-2.463-1.108
				c-0.61-0.739-0.915-1.736-0.915-2.991v-4.46c0-1.237,0.305-2.226,0.915-2.965c0.61-0.739,1.474-1.109,2.592-1.109
				c1.116,0,1.916,0.585,2.398,1.753v-1.496h2.243v10.21C191.494,240.462,191.683,240.753,192.061,240.753z M189.251,238.253v-5.079
				c0-0.79-0.189-1.486-0.567-2.088c-0.378-0.601-0.902-0.902-1.572-0.902c-1.015,0-1.521,0.808-1.521,2.424v6.213
				c0,1.599,0.498,2.398,1.495,2.398c0.705,0,1.241-0.288,1.611-0.863C189.066,239.778,189.251,239.078,189.251,238.253z"/>
			<path style="fill:#303445;" d="M201.524,235.082h-2.037v-2.372c0-1.581-0.739-2.372-2.218-2.372v11.447h-2.217v-12.118h2.217
				c1.736,0,2.957,0.636,3.661,1.908v-1.65h0.594V235.082z"/>
			<path style="fill:#303445;" d="M211.088,233.767v2.037h-5.157v2.939c0,1.685,0.688,2.527,2.063,2.527
				c0.738,0,1.302-0.3,1.689-0.902c0.387-0.602,0.58-1.117,0.58-1.547h0.567c0,0.997-0.404,1.848-1.212,2.552
				c-0.516,0.447-1.169,0.67-1.96,0.67c-1.357,0-2.355-0.404-2.99-1.212c-0.636-0.808-0.954-1.839-0.954-3.094v-4.048
				c0-1.254,0.344-2.282,1.031-3.081c0.688-0.799,1.658-1.199,2.913-1.199s2.141,0.413,2.656,1.238
				C210.83,231.472,211.088,232.512,211.088,233.767z M209.618,235.03v-2.346c0-1.667-0.603-2.501-1.805-2.501
				c-1.255,0-1.883,0.834-1.883,2.501v2.346H209.618z"/>
			<path style="fill:#303445;" d="M220.911,233.767v2.037h-5.157v2.939c0,1.685,0.688,2.527,2.063,2.527
				c0.738,0,1.302-0.3,1.689-0.902c0.387-0.602,0.58-1.117,0.58-1.547h0.567c0,0.997-0.404,1.848-1.212,2.552
				c-0.516,0.447-1.169,0.67-1.96,0.67c-1.357,0-2.354-0.404-2.99-1.212c-0.636-0.808-0.954-1.839-0.954-3.094v-4.048
				c0-1.254,0.344-2.282,1.031-3.081c0.688-0.799,1.658-1.199,2.913-1.199c1.255,0,2.141,0.413,2.656,1.238
				C220.654,231.472,220.911,232.512,220.911,233.767z M219.442,235.03v-2.346c0-1.667-0.603-2.501-1.805-2.501
				c-1.255,0-1.883,0.834-1.883,2.501v2.346H219.442z"/>
			<path style="fill:#303445;" d="M237.643,239.877c0,0.584,0.181,0.876,0.541,0.876c0.361,0,0.644-0.275,0.852-0.825l0.489,0.078
				c0,0.155-0.052,0.37-0.154,0.645c-0.104,0.275-0.22,0.502-0.349,0.683c-0.129,0.181-0.326,0.344-0.593,0.49
				c-0.267,0.146-0.571,0.219-0.915,0.219c-1.409,0-2.114-0.851-2.114-2.552v-6.884c0-1.616-0.507-2.424-1.52-2.424
				c-0.671,0-1.19,0.301-1.561,0.902c-0.369,0.602-0.554,1.298-0.554,2.088v8.611h-2.27v-9.178c0-1.616-0.507-2.424-1.521-2.424
				c-0.671,0-1.195,0.301-1.573,0.902c-0.378,0.602-0.567,1.298-0.567,2.088v8.611h-2.217v-12.118h2.217v1.496
				c0.499-1.169,1.35-1.753,2.553-1.753c0.773,0,1.431,0.215,1.973,0.645c0.541,0.43,0.924,1.031,1.147,1.805
				c0.188-0.756,0.52-1.354,0.992-1.792c0.473-0.439,1.07-0.658,1.792-0.658c1.031,0,1.848,0.366,2.449,1.096
				c0.602,0.731,0.902,1.724,0.902,2.978V239.877z"/>
		</g>
	</g>
</g>
</svg>
